<svg xmlns="http://www.w3.org/2000/svg" viewBox="0 0 310.91 383.31"><path d="M153.27,383.31c-1.56-2-3.29-4-4.67-6.13-9.78-15.19-23.14-26.27-39.06-34.53-12-6.24-24.29-12.17-36-19.06-20.28-12-35-29.34-46.17-49.9l-3.54-6.56c-4.8,2.3-9.48,4.54-14.15,6.8-2.43,1.18-4.87,2.12-7.38.28S-.19,269.69.21,266.8q5.85-43.16,11.53-86.34c.39-3,1.29-5.36,4.48-6.13,3-.73,4.93.79,6.61,3.09q24.11,33.12,48.25,66.19c3.83,5.27,2.19,9.15-4.29,10.35q-8.82,1.62-17.67,3.09c-3.72.6-6.44-1.14-7.11-4.35s1.31-5.74,5.08-6.56c3.26-.72,6.57-1.25,10.52-2L21.23,194.32c-3,22.37-5.83,43.67-8.77,65.69,3.41-1.61,6.35-3,9.28-4.38,6-2.88,8.06-2.24,10.92,3.72,6.69,13.91,14.8,26.83,25.63,37.94,10.23,10.49,22.39,18.16,35.33,24.8,11,5.63,22,11.18,32.6,17.44,11.61,6.86,21.05,16.31,28.92,27.34.45-.2.9-.25,1.07-.49,12.34-17.43,29.43-28.76,48.3-37.89,13-6.3,26.05-12.57,37.52-21.58,15.32-12.05,26.37-27.4,34.93-44.71,4.87-9.87,5.22-10,15.2-5.21,1.9.92,3.81,1.81,6.4,3-2.91-21.87-5.75-43.21-8.74-65.71l-36.38,49.83c3,.55,5.41,1,7.84,1.43,8.36,1.35,9.94,4.84,5.24,12-7.94,12.1-18.53,21.48-30.58,29.28C221.88,296,206.52,302,190.31,306c-11.78,2.86-22.23-5-22.28-17.07-.19-38-.09-76.09-.07-114.13,0-4.2,2.11-6.57,5.48-6.62s5.69,2.43,5.7,6.83c.05,20.21,0,40.42,0,60.63q0,24.88,0,49.77c0,9.16,2.62,11.25,11.41,8.89,21.91-5.89,41.75-15.55,57.82-32,1.31-1.34,2.51-2.77,3.74-4.18.48-.56.9-1.18,1.75-2.31-3.73-.69-7.06-1.28-10.38-1.94-5.45-1.08-7.24-5.16-4-9.62q24.51-33.75,49.15-67.39c1.65-2.27,4-3.63,6.42-2.29,1.78,1,3.71,3.26,4,5.18q6.19,44.06,11.8,88.2a7.78,7.78,0,0,1-2.33,6.08c-1.32,1.05-4.33,1-6.14.25-5.07-2-9.9-4.61-15.16-7.13-1.67,3-3.26,5.95-4.87,8.85-13.6,24.52-33.08,42.8-58.17,55.29-11.25,5.6-22.47,11.35-33.29,17.72-12,7.07-21.36,17.08-28.85,28.83a68.26,68.26,0,0,1-4.3,5.49Z"/><path d="M131.68,137.28c-8.79,0-17.24-.06-25.69.07-1,0-2,.93-2.89,1.55a23.54,23.54,0,0,1-31.37-34.67c8.08-9.17,20.9-10.73,31.19-4a10.83,10.83,0,0,0,5.45,1.67c7.69.19,15.39.08,23.49.08a115.08,115.08,0,0,0-.14-11.54c-.13-1.23-1.7-2.53-2.9-3.4-16.08-11.76-23.34-27.61-20.15-47.18s15-32.32,33.92-38c22.06-6.62,45.69,4.48,55.95,25.68a47,47,0,0,1-15.28,58.58c-3.15,2.22-4.62,4.39-4.15,8.17a62.42,62.42,0,0,1,.06,7.41c1.29.09,2.36.23,3.43.24,5.37,0,10.74-.11,16.1.05a19.76,19.76,0,0,0,11.56-2.87c9.89-6,22.63-3.18,29.85,6a23.51,23.51,0,0,1-1.06,30.25,23.78,23.78,0,0,1-30.34,4.09,16.18,16.18,0,0,0-7.54-2.2c-7.19-.29-14.39-.1-22-.1,0,4.09.07,7.68,0,11.27-.1,4.42-2.23,6.79-5.82,6.68s-5.29-2.33-5.36-6.71c-.07-3.62-.12-7.24,0-10.85.26-6.46,4.58-11.27,11-11.48,9.6-.32,19.21-.23,28.81,0,1.77,0,3.74,1.28,5.19,2.48,5.6,4.6,12.8,4.5,17.5-.48a12.22,12.22,0,0,0,0-16.93c-4.78-5-11.82-5.1-17.51-.55a11.38,11.38,0,0,1-6.27,2.45c-8.73.28-17.47.15-26.2.11-7.92,0-12.43-4.58-12.57-12.56-.06-3.24.1-6.49,0-9.73-.23-5.53,2.05-9.45,6.74-12.42,10.37-6.55,16-16.08,17.14-28.33,1.74-18.84-13.35-36.69-32.85-38.75-18.78-2-37,12.2-39.33,30.67-1.94,15.63,3.8,27.85,16.89,36.48,4.5,3,6.8,6.72,6.63,12.1-.12,3.62.07,7.24-.07,10.85-.27,7.07-4.87,11.61-11.92,11.67-9,.09-18,.16-26.95-.08a10.64,10.64,0,0,1-6-2.28c-5.94-4.8-12.89-4.74-17.77.5a12.24,12.24,0,0,0,.15,16.93c4.68,4.87,11.87,4.83,17.55.3a11.47,11.47,0,0,1,6.32-2.45c8.6-.27,17.21-.17,25.82-.1,8.11.07,12.78,4.69,12.78,12.84q.06,74.47,0,149c0,13.49-10.29,21.15-23.45,17.84-20.44-5.13-39.29-13.55-55.71-27a17,17,0,0,1-2.74-2.54,5.51,5.51,0,0,1,7-8.22,20,20,0,0,1,3,2.23c15.28,12.45,32.89,20,51.85,24.76,5.77,1.44,8.84-1.49,8.84-8.09q0-62.49,0-125c0-6.74,0-13.48,0-20.21C131.87,140.29,131.76,139,131.68,137.28Z"/><path d="M155.45,71.23a23.59,23.59,0,1,1,23.66-23.4A23.56,23.56,0,0,1,155.45,71.23ZM155.59,60a12.34,12.34,0,0,0,12.3-12.4,12.37,12.37,0,1,0-24.74.14A12.33,12.33,0,0,0,155.59,60Z"/></svg>