<svg xmlns="http://www.w3.org/2000/svg" viewBox="0 0 383.25 383.31"><path d="M383.25,116V129.5c-2,10.88-3.93,21.77-6,32.64-1.86,9.79-5.42,19.54-5.41,29.31s3.54,19.78,5.42,29.68c2.06,10.88,4,21.77,6,32.65v13.48a4.45,4.45,0,0,0-.5,1c-2.94,13.37-11.42,21.05-24.54,24.09-6.76,1.57-13.47,3.36-20.38,5.1,1.46,5.51-.41,9.81-4,13.47q-11.28,11.41-22.68,22.72c-3.73,3.69-8.08,5.77-13.75,4.22-1.88,7.54-3.67,14.89-5.55,22.22-2.59,10.05-8.49,17.32-18.27,21.17-2.06.81-4.22,1.38-6.34,2.06H253.75a2.21,2.21,0,0,0-.64-.37c-18.24-3.4-36.49-6.69-54.7-10.24a30.7,30.7,0,0,0-13.22,0c-7.76,1.82-15.61,3.22-23.44,4.7-10.75,2-21.51,4-32.27,5.94H116a4.65,4.65,0,0,0-1-.51c-13-2.87-20.82-11-23.87-23.86-1.66-7-3.53-13.95-5.34-21.09-5.38,1.46-9.62-.26-13.2-3.79Q61.15,322.8,49.82,311.39c-3.79-3.8-6-8.22-4.44-14-7.5-1.87-14.74-3.65-22-5.48C12,289,4,282.07,1.16,270.57a43,43,0,0,1-.69-16.3C2.79,238.76,6,223.38,8.55,207.9c1.11-6.67,4-13.14,2.58-20.16-1.67-8.05-3.53-16.08-4.86-24.19-2.27-13.87-5-27.74-6-41.72-1.13-15.42,8.57-26.9,23.64-30.56C31,89.54,38.07,87.7,45.4,85.86c-1.53-5.66.52-10,4.22-13.75Q60.81,60.83,72.09,49.64c3.73-3.68,8.06-5.83,13.71-4.22,2.09-8.18,3.93-16.17,6.2-24,3-10.54,10-17.6,20.59-20.2A43.36,43.36,0,0,1,128.88.45C144.51,2.79,160,6,175.61,8.61c6.67,1.11,13.14,4,20.17,2.51,9.26-1.95,18.51-4,27.84-5.6C236,3.45,248.42,1,260.92.2c16-1,27.14,8.22,31.09,23.92,1.78,7.08,3.6,14.15,5.42,21.31a12.53,12.53,0,0,1,12.75,3.4C317.6,56,325,63.26,332.28,70.61c4.12,4.16,7.6,8.72,5.47,15.17,8.46,2.17,16.49,4,24.36,6.3,10,3,16.61,9.7,19.81,19.69C382.37,113.19,382.81,114.6,383.25,116ZM329.64,287.64c42.21-57.91,38.62-140.45-.6-192.53a27.63,27.63,0,0,1-2.51,3.43q-21.12,21.22-42.33,42.35c-6.22,6.18-13.77,5.6-18.86-1.43a91.63,91.63,0,0,0-21.63-21.55,13.7,13.7,0,0,1-5.57-8.53,5.73,5.73,0,0,0-2.61-3.44q-43.82-21.56-87.73-.06c-1.26.62-2,2.42-2.84,3.74-1.73,2.63-2.82,6-5.17,7.85a117.68,117.68,0,0,0-22.39,22.42c-1.72,2.28-4.8,3.92-7.59,4.84a6.22,6.22,0,0,0-4.26,3.47q-20.91,43.63.15,87.18c.87,1.82,2.12,2.46,4,3.16,2.89,1,6,2.75,7.84,5.11,6.36,8.28,13.42,15.75,22,21.76a13.47,13.47,0,0,1,5.52,8.56,5.28,5.28,0,0,0,2.34,3.22q44.18,21.87,88.39,0c1.07-.53,1.68-2.08,2.4-3.22,1.76-2.75,2.86-6.31,5.28-8.18a113,113,0,0,0,22.32-22.49c1.39-1.89,3.74-4.06,5.81-4.25,4.54-.43,5.95-3.36,7.38-6.7.88-2.05,1.78-4.11,2.57-6.21a96.18,96.18,0,0,0,2.78-60.93c-.06-.24-.14-.48-.21-.72-1.14-4.27.11-7.23,3.46-8.16s6.09.8,7.29,5.07q11.58,41-7.55,79.17c-1.29,2.57-1.1,4,.94,6,13,12.78,25.8,25.72,38.68,38.59C327.82,286,328.73,286.79,329.64,287.64ZM53.79,95.42c-40.58,55.15-40.72,137.07-.1,192.32q9.81-9.84,19.56-19.59c3.61-3.61,6.73-4,9.36-1.33s2,5.8-1.56,9.41c-5.81,5.83-11.61,11.67-17.47,17.45-2.53,2.5-5.19,4.86-8.34,7.79l25.83,25.72,51.67-51.6-26-26c-2.06,2.32-4.47,5.35-7.2,8a5.49,5.49,0,0,1-7.76.11c-2.35-2.25-2.41-5.29,0-8a25.41,25.41,0,0,1,3.44-3.44c2-1.57,2.07-3,.9-5.34q-24.28-49.18,0-98.5c1.26-2.55.8-3.84-1-5.64-10.13-10-20.15-20.06-30.19-30.13C61.11,103,57.49,99.21,53.79,95.42ZM94.72,329c57.11,41.65,138.7,40.56,192.78.7a11.27,11.27,0,0,0-.89-1.17c-13.66-13.67-27.38-27.29-40.94-41.06-1.89-1.93-3.13-1-4.82-.18q-49.26,24.17-98.5-.08c-2.33-1.14-3.55-1-5.36.84q-19,19.31-38.33,38.37A23.77,23.77,0,0,1,94.72,329Zm193-275.36c-58.72-42.58-140.79-38.39-192,0a7.37,7.37,0,0,0,.65.9C110.19,68.29,124,82,137.63,95.86c1.71,1.72,2.88,1,4.51.23,30.61-15.15,61.65-16.2,93.13-2.79,2.94,1.25,6.13,3.93,8.71,3.42s4.75-4.1,7-6.39C263.2,78.19,275.37,66,287.77,53.66Zm-37.33,54,25.06,25.16,51.69-51.72L302.09,56ZM327.7,303.17c-18.53-18.53-35.75-35.77-52.37-52.4l-24.95,24.87L302.79,328ZM133.29,108,81.14,55.94l-24.93,25L108.28,133c3.64-4.14,7.37-8.84,11.59-13.06S128.78,112,133.29,108Zm212.54,175.9c5.5-1.49,10.31-2.33,14.75-4.09,7.28-2.9,11.2-8.69,11.34-16.51a103.94,103.94,0,0,0-1.06-15.65c-.77-5.74-2.08-11.4-3.15-17.1A205.47,205.47,0,0,1,345.83,283.92Zm-193.4,83.44A193.3,193.3,0,0,1,99.48,346c1.24,5,2,9.12,3.33,13.13,2.29,7.16,7.33,11.88,14.74,12.66C129.43,373,141,370.25,152.43,367.36ZM345.79,99.42a190.48,190.48,0,0,1,21.54,53.1c2.82-11.42,5.54-22.86,4.43-34.62-.7-7.42-5.25-12.58-12.4-15C355.26,101.59,351,100.75,345.79,99.42Zm-246.46-62a182.41,182.41,0,0,1,53.44-21.29c-.54-.38-.81-.73-1.12-.77-10.71-1.41-21.4-3.35-32.16-4-7.42-.42-13.11,4-15.93,10.92C101.72,26.87,100.87,31.8,99.33,37.44ZM15.92,230.81c-2.86,11.33-5.47,22.66-4.5,34.31.61,7.26,4.87,12.5,11.85,14.95,4.29,1.51,8.8,2.4,14.08,3.8A192.73,192.73,0,0,1,15.92,230.81Zm-.31-78.19c3.07-9.3,5.62-18.42,9.09-27.18s7.81-17,11.91-25.82c-4.47,1.17-8.86,2-13.06,3.46-7,2.37-11.39,7.52-12.08,14.77C10.35,129.62,13.07,141.06,15.61,152.62ZM230.14,367.16c7.34,2.85,28.33,5.75,34.9,4.79,7.22-1.07,12.51-4.92,15-11.89,1.52-4.29,2.41-8.8,3.82-14.11A183.21,183.21,0,0,1,230.14,367.16ZM283.88,37.38c-1.52-5.59-2.36-10.53-4.22-15.05-2.91-7.08-8.66-10.91-16.33-11a104.88,104.88,0,0,0-15.63,1c-5.74.76-11.4,2.09-17.1,3.17A205.13,205.13,0,0,1,283.88,37.38Z"/></svg>