<svg xmlns="http://www.w3.org/2000/svg" viewBox="0 0 384 383.22"><path d="M0,375.74c1.59-3.17,4.3-3.92,7.67-4.29,7.92-.85,15.79-2.19,23.67-3.39,2-.3,3-1.3,3.49-3.56,4.49-19.27,23.14-34.59,42.88-36,16-1.13,31.86-2.79,47.79-4.09,2.38-.19,3.51-1,4-3.35a72.32,72.32,0,0,1,2.39-9c3.32-10,10.26-15.38,20.75-15.87,11-.51,22-.83,33.25-1.24.08-1.18.15-2.2.24-3.68H39.65c-1.13,0-2.25,0-3.38,0-4.22-.11-6.84-2.36-6.79-5.84s2.65-5.81,6.94-5.58a13.5,13.5,0,0,0,9-2.94c20.51-14.52,37.27-32.76,52.31-52.67,23.71-31.38,41.27-66.12,55.94-102.44A24,24,0,0,1,155,118.7a5.71,5.71,0,0,1,7.4-2.54,5.42,5.42,0,0,1,3.19,6.81,68.55,68.55,0,0,1-2.84,7.31c-15.94,38.8-35.35,75.65-61.66,108.58a261.34,261.34,0,0,1-37.15,38.46c-.64.54-1.27,1.1-2.49,2.15H185.89V64.71l-.36-.1q-3.08,9.89-6.16,19.77-1.76,5.52-3.62,11c-1.52,4.46-4.24,6.32-7.59,5.28-3.66-1.13-4.8-4.26-3.43-8.87,5-16.83,10.11-33.63,14.85-50.54,2.42-8.63,4.25-17.42,6.11-26.2.56-2.64.33-5.45.43-8.19C186.28,2.61,188.46,0,192,0s5.74,2.31,5.84,6.39c.05,2.18,1,3,2.78,3.75,40.71,16.72,72,44.28,94.3,82.05,13.79,23.36,23.19,48.51,29.84,74.72a467.93,467.93,0,0,1,12.84,82.27c.77,11.07,1.28,22.16,1.88,33.24.31,5.89-2.48,8.82-8.45,8.82H201.61c-2.2,0-4.58-.33-3.51,3.12,6,.93,12.19,1.36,18,2.94a57,57,0,0,1,15,6.4,18.91,18.91,0,0,1,7.41,8.56c1.69,4.43,4.22,4.36,7.94,4.15q46.79-2.69,93.59-5c7.34-.38,9.79,3.37,6.84,10.1-5.39,12.31-14.12,21.95-24.5,30.23-1.36,1.09-2.75,2.13-4.82,3.73,7,2.75,13.47,5.44,20,7.84,12.64,4.61,25.65,7.49,39.19,7.2,3.27-.07,5.37,1.41,7.18,3.77V378c-1.65,3.34-4.46,4.62-8,4.2-8.79-1-17.87-1.08-26.26-3.51a409.9,409.9,0,0,1-40.79-14.58c-18.17-7.4-36-8.27-54.06.06-6.11,2.82-12.3,5.47-18.47,8.19-10.66,4.69-21.6,8.35-33.33,9.45-22.17,2.07-42.81-3.64-62.94-12.09-3.71-1.56-5-4.58-3.71-7.78s4.32-4.31,8.15-2.9,7.64,3.07,11.52,4.43c18.82,6.63,38.11,10.16,57.67,4.54,11.2-3.21,22-8.07,32.63-12.94,18.14-8.31,36.59-11.33,56-5.54a4.76,4.76,0,0,0,3.73-.66c6.28-4.89,12.62-9.75,18.54-15.07,3.07-2.76,5.31-6.43,8.47-10.36-1.85,0-2.68,0-3.51,0-20.21,1.05-40.43,2-60.63,3.2-33.92,2-67.83,4.06-101.73,6.44-29.4,2.07-58.75,4.89-88.16,6.82-13.7.9-22.53,8.26-29.59,18.93a29,29,0,0,0-1.47,3.24l14.66-6.85c17.28-8.1,35.19-10.84,54-6.35,4.68,1.12,7,3.85,6.14,7.36s-3.9,4.94-8.65,4a96.71,96.71,0,0,0-11.09-1.69c-13.88-1.12-26.47,3.14-39,8.71-11.46,5.11-23.4,9.19-35.28,13.3-4.4,1.52-9.23,1.82-13.86,2.68H0ZM218,213.17c1.21-.27,2.16-.42,3.07-.69a170.82,170.82,0,0,1,53.29-6.76c6.21.18,9,2.07,8.78,6.12s-2.91,5.53-9,5.4a166.12,166.12,0,0,0-55.67,8.14,4.82,4.82,0,0,0-3.6,4c-4,15.82-8.14,31.57-12.23,47.35-.23.89-.31,1.81-.45,2.66H327.53a18,18,0,0,0,.11-1.81c-1.25-16.78-2.45-33.56-3.87-50.33a4.53,4.53,0,0,0-2.79-3.05c-5.79-1.52-11.69-2.58-17.51-4-4.09-1-5.89-4.52-4.27-7.95,1.53-3.26,4.27-3.87,7.54-3.19,4.92,1,9.85,2,16,3.28-3.92-17.47-7.59-34-11.41-50.45a4.19,4.19,0,0,0-2.68-2.42c-4.35-1.09-8.76-2-13.19-2.71-23.8-3.92-47.26-2.9-70.28,4.83-2.43.81-3.19,1.89-3.26,4.45-.19,7.34-.62,14.69-1.24,22C220,196.37,218.94,204.62,218,213.17Zm4.34-62.82c27.82-9.29,55.84-9.26,84.55-3.85-4.8-12.38-10.31-24.2-15.1-36.3-3-7.57-7.9-10.82-15.94-12-18.06-2.6-35.79-2.58-53.36,2.8-2.26.69-3.29,1.59-2.91,4.15.52,3.56.71,7.19.91,10.79C221.16,127.28,221.75,138.59,222.37,150.35ZM218.77,90c18.95-5.9,38.56-6.77,58.59-3.1-9.58-20-53.75-57.4-71.92-61.52C209.81,46.58,214.23,68,218.77,90ZM198,249c17.77-66.67,15-133.34,0-200Zm29.65,68.38.68-1.3c-2.71-1.79-5.22-4-8.15-5.29-9.23-4-19.11-4.52-29-4.29-11.72.26-23.44.82-35.17,1.14-10,.28-14.67,5.17-14.55,15.51Z"/></svg>