<?xml version="1.0" encoding="utf-8"?>
<!-- Generator: Adobe Illustrator 29.2.1, SVG Export Plug-In . SVG Version: 9.03 Build 55982)  -->
<svg version="1.1" id="page_4_x26_5" xmlns="http://www.w3.org/2000/svg" xmlns:xlink="http://www.w3.org/1999/xlink" x="0px"
	 y="0px" viewBox="0 0 70.8 37.8" style="enable-background:new 0 0 70.8 37.8;" xml:space="preserve">
<style type="text/css">
	.st0{fill:#D98D28;stroke:#DA8D27;stroke-width:0.25;stroke-miterlimit:10;}
</style>
<g>
	<g>
		<g>
			<path class="st0" d="M61.2,25.3h-2.8c-0.1,0-0.1,0-0.2-0.1c-5.3-9-17.2-12.1-21.9-12.1s-16.6,3-21.9,12.1c0,0.1-0.1,0.1-0.2,0.1
				h-2.8c-0.1,0-0.1,0-0.2-0.1c0-0.1,0-0.2,0-0.2C19.6,12.6,33.6,12,36.3,12c2.7,0,16.7,0.6,25,12.9c0,0.1,0,0.1,0,0.2
				C61.4,25.2,61.3,25.3,61.2,25.3z M58.5,24.9h2.3C52.6,13,39,12.4,36.3,12.4c-2.7,0-16.3,0.6-24.5,12.4h2.3
				c2.9-4.9,7.6-7.8,11-9.4c4.5-2.1,8.7-2.8,11.2-2.8c2.5,0,6.7,0.7,11.2,2.8C50.9,17.1,55.6,20,58.5,24.9z"/>
		</g>
		<g>
			<path class="st0" d="M57.7,24.2c-14.3-1.7-28.7-1.7-42.7,0l0-0.4c14.1-1.7,28.5-1.7,42.8,0L57.7,24.2z"/>
		</g>
		<g>
			<path class="st0" d="M57.3,23.7c-14.1-2-28.2-2-42,0l-0.1-0.4c13.8-2,28-2,42.1,0L57.3,23.7z"/>
		</g>
		<g>
			<rect x="35.8" y="12.9" class="st0" width="0.4" height="9.1"/>
		</g>
		<g>
			
				<rect x="29.1" y="17.4" transform="matrix(7.326000e-02 -0.9973 0.9973 7.326000e-02 13.5859 49.7405)" class="st0" width="8.9" height="0.4"/>
		</g>
		<g>
			
				<rect x="26.5" y="17.6" transform="matrix(0.1879 -0.9822 0.9822 0.1879 7.5828 44.7041)" class="st0" width="8.7" height="0.4"/>
		</g>
		<g>
			<rect x="23.6" y="18" transform="matrix(0.3497 -0.9369 0.9369 0.3497 1.1348 38.0686)" class="st0" width="8.9" height="0.4"/>
		</g>
		<g>
			
				<rect x="20.6" y="18.5" transform="matrix(0.4828 -0.8757 0.8757 0.4828 -3.4673 31.624)" class="st0" width="8.8" height="0.4"/>
		</g>
		<g>
			
				<rect x="38.4" y="13.1" transform="matrix(0.9973 -7.337470e-02 7.337470e-02 0.9973 -1.1843 2.8828)" class="st0" width="0.4" height="8.9"/>
		</g>
		<g>
			
				<rect x="41.2" y="13.4" transform="matrix(0.9821 -0.1882 0.1882 0.9821 -2.6038 8.1021)" class="st0" width="0.4" height="8.7"/>
		</g>
		<g>
			<rect x="44" y="13.7" transform="matrix(0.9388 -0.3445 0.3445 0.9388 -3.5455 16.3406)" class="st0" width="0.4" height="9"/>
		</g>
		<g>
			
				<rect x="46.9" y="14.1" transform="matrix(0.8753 -0.4836 0.4836 0.8753 -3.1378 25.0997)" class="st0" width="0.4" height="9.1"/>
		</g>
		<g>
			
				<rect x="21.3" y="18.5" transform="matrix(0.4605 -0.8877 0.8877 0.4605 -2.6439 32.8599)" class="st0" width="8.9" height="0.2"/>
		</g>
		<g>
			<rect x="24.2" y="18" transform="matrix(0.3212 -0.947 0.947 0.3212 2.2568 39.3719)" class="st0" width="8.8" height="0.2"/>
		</g>
		<g>
			<rect x="26.9" y="17.6" transform="matrix(0.1698 -0.9855 0.9855 0.1698 8.515 45.554)" class="st0" width="8.7" height="0.2"/>
		</g>
		<g>
			
				<rect x="29.5" y="17.5" transform="matrix(6.055404e-02 -0.9982 0.9982 6.055404e-02 14.4162 50.4374)" class="st0" width="8.9" height="0.2"/>
		</g>
		<g>
			<rect x="36.4" y="12.8" class="st0" width="0.2" height="9.2"/>
		</g>
		<g>
			
				<rect x="39" y="13.1" transform="matrix(0.9972 -7.475489e-02 7.475489e-02 0.9972 -1.2032 2.9741)" class="st0" width="0.2" height="8.9"/>
		</g>
		<g>
			
				<rect x="41.8" y="13.4" transform="matrix(0.9807 -0.1955 0.1955 0.9807 -2.6783 8.5332)" class="st0" width="0.2" height="8.8"/>
		</g>
		<g>
			
				<rect x="44.6" y="13.8" transform="matrix(0.9339 -0.3574 0.3574 0.9339 -3.5552 17.1896)" class="st0" width="0.2" height="8.9"/>
		</g>
		<g>
			<rect x="47.5" y="14.3" transform="matrix(0.8699 -0.4932 0.4932 0.8699 -3.0471 25.9288)" class="st0" width="0.2" height="9"/>
		</g>
		<g>
			<path class="st0" d="M12.9,25.1L12.8,25c2.4-3.5,5.7-6.6,9.5-8.7c4.3-2.5,9.1-3.7,14-3.7v0.2C25.3,12.8,17,19.2,12.9,25.1z"/>
		</g>
		<g>
			<path class="st0" d="M59.9,25.1c-4.1-6-12.3-12.3-23.4-12.3v-0.2c5,0,9.7,1.2,14,3.7c3.8,2.2,7.1,5.2,9.5,8.7L59.9,25.1z"/>
		</g>
	</g>
</g>
</svg>
