<svg xmlns="http://www.w3.org/2000/svg" width="70.6" height="64.3" viewBox="0 0 70.6 64.3">
  <path d="M50.9,34.7a20,20,0,0,1-.4,2.4,11,11,0,0,1-4.9,7.3A4.2,4.2,0,0,0,44,50.1a7.7,7.7,0,0,1,.7,1.6,3.2,3.2,0,0,1-1.4,3.7,5.8,5.8,0,0,1-1.8.8A5.8,5.8,0,0,0,38,58.3,12.2,12.2,0,0,0,36.5,60a2.3,2.3,0,0,1-1.9,1.3,1.4,1.4,0,0,0-1.5,1.1,2.4,2.4,0,0,1-1.6,1.8,3.9,3.9,0,0,1-3-.4,7.3,7.3,0,0,1-.9-.8c-.7-.8-.7-1.1-.1-1.9l.3-.4c-.7-.5-.5-1.1-.2-1.8a5,5,0,0,1,4.1-2.4,3.7,3.7,0,0,0,2.2-1,8.8,8.8,0,0,1,2.3-1.4c1.2-.6,1.7-1.2,1.4-2.6a10,10,0,0,0-2.3-4.6,11.4,11.4,0,0,1-2.9-5c-.1-.4-.3-.4-.6-.4s-3.1-.5-4.6-.9a11.9,11.9,0,0,1-6.7-4.9,35.8,35.8,0,0,1-4.3.8,17.1,17.1,0,0,1-3.9-.3,2.3,2.3,0,0,0-2.6,1.6c-.3,1.3-.4,2.5.8,3.6A3.9,3.9,0,0,1,9.9,48a1.7,1.7,0,0,1-1-.1,4.3,4.3,0,0,1-1.5-2,34.9,34.9,0,0,0-1.5-3.4H5.7a7.7,7.7,0,0,0,.2,1.5,2.9,2.9,0,0,1-2.5,3.3,1.3,1.3,0,0,1-1.7-1.1A24.6,24.6,0,0,0,.3,40.8a3.7,3.7,0,0,1,.8-4.1,4.8,4.8,0,0,0,1-3.3,4,4,0,0,1,5.1-3.9l4.5.9c1.2.1,1.3-.1,1.4-1.2a22.3,22.3,0,0,1,2.1-7.1c.5-1.4,1.1-2.8,1.5-4.2a3.6,3.6,0,0,0-.8-3.5A6.3,6.3,0,0,1,12,17.3q-.3.1-.3.3a2.7,2.7,0,0,1-3,1.3,3.2,3.2,0,0,1-2.4-4.8c.8-1.3,1.2-2.9,1.9-4.3s1.4-2.5,2-3.8.3-.4.2-.7l-.3-2.9c-.1-.7.3-1.2,1-1.1l.6.3c0-.2-.1-.4,0-.6s.1-.8.4-.9H13a29.5,29.5,0,0,1,2.5,2.5c.3.2.4.4.8.3a13.4,13.4,0,0,1,8.9,2.2,6.9,6.9,0,0,1,1.3,1.1c.7.7.8,1,.2,1.7C27.8,9,29,10,30,11.1a19.4,19.4,0,0,1,1.5,2.4c.4.9.3,1.2-.7,1.6a13.8,13.8,0,0,1,1.8,4.6c.1.5.1,1,.2,1.4A3.1,3.1,0,0,0,35.5,24l4.9.4a9.8,9.8,0,0,1,7.9,4.1l.5.2c3.7-.3,6.4,1.5,8.5,4.3a12.9,12.9,0,0,0,4.5,4.2c1.1.5,2.2,1.1,3.5.7s.8.3.8.5a1.1,1.1,0,0,1-.3,1,24.4,24.4,0,0,1-3.4,1.4l-.8.2v.2a33.6,33.6,0,0,0,4.3,2c1.2.4,2.6.5,3.9.8a.9.9,0,0,1,.9.7c.1.5-.2.8-.7,1a30.9,30.9,0,0,1-9.5,1.5c-4.7-.2-7.6-2.9-8.1-7.6a23.2,23.2,0,0,0-.7-3.8,3.1,3.1,0,0,0-.5-1.2Zm10.9,4.7v-.3l-.3-.2a12.5,12.5,0,0,1-5.1-4.3,9.3,9.3,0,0,0-1.6-1.8,7.4,7.4,0,0,0-5-2.4c-.3,0-.5,0-.6.4a1.1,1.1,0,0,1-.8.7,1.4,1.4,0,0,1-.8-.6,4.2,4.2,0,0,1-.4-1,7.7,7.7,0,0,0-5.7-3.7l-5.3-.4c-3.1-.3-4.7-1.8-5.1-4.9A9.9,9.9,0,0,0,27.4,14c-.2-.2-.4-.7-.2-.9a.9.9,0,0,1,.8-.5c.3-.1.7.1,1,.1v-.2A21.8,21.8,0,0,0,26.3,10a31.3,31.3,0,0,0-3-2,1.3,1.3,0,0,1-.6-.9c.1-.3.6-.5.8-.7H24c-.2-.1-.3-.1-.3-.2l-.6-.3a12,12,0,0,0-6.7-1.2c-1.7.2-1.7.2-2.2-.8a2.5,2.5,0,0,1-.9.4A2.5,2.5,0,0,1,12.1,4V5.9a1.1,1.1,0,0,1-.2.8C10.6,8,10,9.9,9.3,11.6a13.3,13.3,0,0,1-1.5,3.2c-.8,1,.1,2.4,1.4,2.5s1.1-.3,1.1-1a5.7,5.7,0,0,0-.1-1.3.9.9,0,0,1,.7-1,.8.8,0,0,1,1,.7c0,.3.1.5.1.8A4,4,0,0,0,14.7,13c.3-.8.8-1,1.6-.5a4.1,4.1,0,0,1,1.7,2,5.3,5.3,0,0,1,.4,3.7c-.5,1.5-1.1,3.1-1.7,4.6a22.2,22.2,0,0,0-2,7.1A2,2,0,0,1,12.6,32a2,2,0,0,1-1.1,0L7,31.2c-1.9-.4-3.1.5-3.2,2.4a7.1,7.1,0,0,1-1.7,4.6,1.7,1.7,0,0,0-.3,1.4,6.1,6.1,0,0,0,.5,1.8c.2.8.5,1.7.7,2.6s.2,1.1.3,1.8.6-.4.7-.7a3,3,0,0,0-.5-2.9,2.5,2.5,0,0,1-.8-2.4c.4-1.2.7-2.4,1.2-3.6a10.7,10.7,0,0,1,1.6-2.5c1.1-1.2,2.1-1.2,3.5-.5a11.9,11.9,0,0,0,7.4,1.6,12.7,12.7,0,0,0,6.9-3c.5-.4.9-.6,1.4-.1s.3.9-.3,1.4L22,34.8c1.9,3.4,7.2,5.1,10,4.9a30.1,30.1,0,0,1,.7-3.2.9.9,0,0,1,1.1-.7.8.8,0,0,1,.5,1.2c-1.1,3.4-.2,6.2,2.1,8.7a11.5,11.5,0,0,1,2.8,5.2c.6,2.3-.3,3.9-2.5,4.8a6.9,6.9,0,0,0-1.7,1,3.3,3.3,0,0,1-3.1,1.5,3.2,3.2,0,0,0-2.5,1.1c.9.6.9.9.3,1.7L29,62c1.1,1,2,.8,2.6-.5l.3-.5a1.5,1.5,0,0,1,1.4-1.2,3,3,0,0,0,2.4-1.5,8.6,8.6,0,0,1,5.5-3.8,3.2,3.2,0,0,0,.9-.3,1.8,1.8,0,0,0,.9-2.3,5.4,5.4,0,0,0-.5-1.1c-1.2-2.4-.8-6.5,2.1-7.8a7.8,7.8,0,0,0,3.5-3.9,11.7,11.7,0,0,0,1.1-4.9c0-1,.4-1.4,1.5-1.4a2.1,2.1,0,0,1,1.9,1.1,7.2,7.2,0,0,1,.9,2c.2,1.3.4,2.5.5,3.8s1.2,4.3,3.5,5.2,5.3.7,8.2.1l-.6-.2A27.9,27.9,0,0,1,58,40.7c-.4-.3-.7-.6-.5-1.1s.7-.5,1.2-.5A29.6,29.6,0,0,0,61.8,39.4ZM7.9,38H7.8a10.5,10.5,0,0,0-.6,2.4,3.8,3.8,0,0,0,.3,1.8c.4,1,1,1.9,1.4,2.9a6.1,6.1,0,0,1,.5,1.2,1.9,1.9,0,0,0,.6-2.8,7.3,7.3,0,0,0-.8-.9,3.5,3.5,0,0,1-1.3-2.8ZM5.5,41.8a2.5,2.5,0,0,1-.1-1.2A26.1,26.1,0,0,0,6,37.9a8.2,8.2,0,0,0,.2-2.2H6a14,14,0,0,0-1.6,4.6,2.1,2.1,0,0,0,.2.6ZM8,34.6v2.6l1.3-1.9Z"/>
</svg>
