<svg xmlns="http://www.w3.org/2000/svg" width="72" height="50.4" viewBox="0 0 72 50.4">
  <g>
    <g>
      <path d="M0,24.8A1.8,1.8,0,0,1,1.8,24H6V6.5c0-1.4.4-1.7,1.7-1.7h2.7L9.8,2.1C9.4.5,9.8,0,11.4,0h3.8c1.1,0,1.4.3,1.7,1.3s.5,2.3.8,3.5h3.5c-.2-1.1-.5-2.1-.7-3.1S20.7,0,21.9,0h4.2c1,0,1.3.3,1.6,1.2s.5,2.4.8,3.6h25a1.7,1.7,0,0,1,1.8,1.1L64,23.3a1,1,0,0,0,1.1.7h5.2a1.7,1.7,0,0,1,1.7.8v.8l-.3.4c-2.2,4.9-4.5,9.8-6.8,14.6,0,.2-.1.3-.2.5l2.8,1.3a13.7,13.7,0,0,0,2.9.7A2,2,0,0,1,72,44v.7a1.7,1.7,0,0,1-1.7.9,11.3,11.3,0,0,1-4.7-1.5,7.1,7.1,0,0,0-6.9,0l-1.8.8a9.8,9.8,0,0,1-8.8-.8,6.8,6.8,0,0,0-6.9,0,20.8,20.8,0,0,1-3,1.2,10,10,0,0,1-7.5-1.2,6.9,6.9,0,0,0-6.8-.1,15.1,15.1,0,0,1-1.8.9,9.5,9.5,0,0,1-8.5-.7,6.3,6.3,0,0,0-2.3-.8,7.2,7.2,0,0,0-5.5,1,8.8,8.8,0,0,1-4.1,1.2A1.7,1.7,0,0,1,0,44.7V44a1.7,1.7,0,0,1,1.6-.8l1.9-.3c0-.2-.1-.3-.1-.4-.8-4-1.5-7.9-2.3-11.9-.4-1.7-.7-3.3-1.1-5ZM5.7,41.7l1.7-.6a9.8,9.8,0,0,1,7.5,1.1,7.4,7.4,0,0,0,4.3,1A8.6,8.6,0,0,0,22.7,42a9.5,9.5,0,0,1,5-1.2,10.4,10.4,0,0,1,4.9,1.5,6.4,6.4,0,0,0,5.4.6,17.5,17.5,0,0,0,2.4-1.1,10.2,10.2,0,0,1,4.5-1,10.6,10.6,0,0,1,5.2,1.6,6.4,6.4,0,0,0,4.5.6,13.9,13.9,0,0,0,3.2-1.2,8.2,8.2,0,0,1,3.7-1,1,1,0,0,0,1-.6c2-4.4,4.1-8.7,6.1-13.1a1.4,1.4,0,0,0,.2-.6H2.7ZM61.6,24c-1-2.2-2.1-4.1-3-6.2a1.6,1.6,0,0,0-1.7-1H8.5V24ZM8.5,7.2v7.1H56.8L53.6,7.9a1,1,0,0,0-1.1-.7H8.5ZM23.2,2.4c.3,2.4.4,2.5,2.7,2.4H26l-.5-2.3Zm-8,2.4a12.9,12.9,0,0,0-.5-2.1.5.5,0,0,0-.3-.3H12.3l.6,2.4Z"/>
      <path d="M72,49.5c-.6,1.2-1.6.9-2.6.8a10.3,10.3,0,0,1-4-1.5,6.3,6.3,0,0,0-5.2-.5,12.2,12.2,0,0,0-2.4,1,9.4,9.4,0,0,1-8.8,0c-2-1-4-1.7-6.2-1a12.2,12.2,0,0,0-2.4,1,9.4,9.4,0,0,1-8.8,0,8.3,8.3,0,0,0-5.7-1.2l-2.7,1.1a9.6,9.6,0,0,1-8.1.6l-1.7-.9a6.8,6.8,0,0,0-6.9,0,12.2,12.2,0,0,1-4.9,1.5A1.5,1.5,0,0,1,0,49.5v-.7A1.5,1.5,0,0,1,1.4,48,6.6,6.6,0,0,0,5,46.9l1.4-.7A10,10,0,0,1,15,47a7.1,7.1,0,0,0,7.2.1A9.9,9.9,0,0,1,25,45.9a10.1,10.1,0,0,1,7.6,1.2,6.9,6.9,0,0,0,6.7.1l1.9-.9a9.7,9.7,0,0,1,8.6.7,7.2,7.2,0,0,0,7.1.1,18.8,18.8,0,0,1,3-1.2,9.7,9.7,0,0,1,7.4,1.2,10.1,10.1,0,0,0,3.1.8,2.6,2.6,0,0,1,1.6.9Z"/>
      <path d="M54.5,21.6h-.8a1.2,1.2,0,0,1-.9-1c0-.6.2-1.1.7-1.2a7.4,7.4,0,0,1,2.1,0,1.1,1.1,0,0,1,.8,1.1,1.2,1.2,0,0,1-.9,1.1Z"/>
      <path d="M36.6,21.6q-1.8,0-1.8-1.2t1.8-1.2q1.8,0,1.8,1.2T36.6,21.6Z"/>
      <path d="M18.6,21.6h-.3c-1,0-1.5-.5-1.5-1.2s.6-1.2,1.5-1.2h1a1.2,1.2,0,0,1,1.1,1.2,1.2,1.2,0,0,1-1.2,1.2Z"/>
      <path d="M30.6,21.6h-.4c-.9-.1-1.4-.5-1.4-1.2a1.2,1.2,0,0,1,1.3-1.2h1.2a1.2,1.2,0,0,1,1.1,1.3,1.3,1.3,0,0,1-1.2,1.1Z"/>
      <path d="M48.5,21.6h-.7a1.2,1.2,0,0,1-1-1,1.1,1.1,0,0,1,.9-1.2h1.7a1.2,1.2,0,0,1,1,1.3,1.3,1.3,0,0,1-1.2,1.1Z"/>
      <path d="M12.5,21.6h-.4c-.8-.1-1.3-.5-1.3-1.2A1.2,1.2,0,0,1,12,19.2h1.3a1.2,1.2,0,0,1,1.1,1.2,1.3,1.3,0,0,1-1.2,1.2Z"/>
      <path d="M42.7,21.6c-1.3,0-1.9-.4-1.9-1.2s.6-1.2,1.8-1.2h.8a1.2,1.2,0,0,1,1,1.1,1.3,1.3,0,0,1-1.1,1.2Z"/>
      <path d="M24.6,21.6q-1.8,0-1.8-1.2t1.8-1.2h.7a1.2,1.2,0,0,1,1.1,1.3,1.3,1.3,0,0,1-1.2,1.1Z"/>
      <path d="M12.6,12q-1.8,0-1.8-1.2t1.8-1.2h.8a1.4,1.4,0,0,1,1,1.3A1.3,1.3,0,0,1,13.3,12Z"/>
      <path d="M30.6,12h-.5c-.8-.1-1.3-.5-1.3-1.2A1.2,1.2,0,0,1,30,9.6h1.1a1.2,1.2,0,0,1,1.3,1.2A1.3,1.3,0,0,1,31,12Z"/>
      <path d="M48.6,12H48a1.2,1.2,0,0,1-1.2-1.2A1.3,1.3,0,0,1,48,9.6h1.1a1.2,1.2,0,0,1,1.3,1.2c0,.7-.5,1.2-1.4,1.2Z"/>
      <path d="M24.6,12q-1.8,0-1.8-1.2c0-.8.6-1.2,1.9-1.2h.7a1.3,1.3,0,0,1,1,1.2A1.3,1.3,0,0,1,25.2,12Z"/>
      <path d="M42.6,12q-1.8,0-1.8-1.2t1.8-1.2h.8a1.3,1.3,0,0,1,1,1.3A1.3,1.3,0,0,1,43.2,12Z"/>
      <path d="M18.6,12q-1.8,0-1.8-1.2t1.8-1.2h.8a1.3,1.3,0,0,1,1,1.3A1.3,1.3,0,0,1,19.2,12Z"/>
      <path d="M36.6,12q-1.8,0-1.8-1.2t1.8-1.2h.8a1.3,1.3,0,0,1,1,1.3A1.3,1.3,0,0,1,37.2,12Z"/>
    </g>
    <path d="M5.7,43.9Q4,35.7,2.4,27.7a1.2,1.2,0,0,1,1.1-1.5H68.7a1,1,0,0,1,.9,1.5,16.7,16.7,0,0,1-.8,2c-1.9,4-3.8,8-5.6,12-.2.3-.3.5-.8.5a8.7,8.7,0,0,0-6.5,1,7,7,0,0,1-7.1,0L47,42.4a8.9,8.9,0,0,0-6.8.5,7.5,7.5,0,0,1-4.8,1.2,10.6,10.6,0,0,1-3-1,9.2,9.2,0,0,0-6.5-.9,13.9,13.9,0,0,0-2.6,1,7,7,0,0,1-7.1,0,8.8,8.8,0,0,0-9-.1Zm9.1-12.1A2.3,2.3,0,1,0,17,34.1,2.4,2.4,0,0,0,14.8,31.8Zm10.1,0a2.3,2.3,0,1,0,0,4.5,2.2,2.2,0,0,0,2.2-2.2A2.2,2.2,0,0,0,24.9,31.8Zm10,0A2.3,2.3,0,1,0,37.2,34,2.2,2.2,0,0,0,34.9,31.8Zm10.2,0a2.3,2.3,0,1,0,0,4.5,2.2,2.2,0,0,0,2.2-2.2A2.2,2.2,0,0,0,45.1,31.8Zm10.1,0a2.3,2.3,0,1,0,0,4.5,2.2,2.2,0,0,0,2.2-2.2A2.2,2.2,0,0,0,55.2,31.8Z"/>
  </g>
</svg>
