<svg xmlns="http://www.w3.org/2000/svg" width="69.8" height="69.8" viewBox="0 0 69.8 69.8">
  <g>
    <path d="M47.4,36c.1,2.1.2,4.1.4,6.1l.5.7L68.4,62.3a4,4,0,0,1,1.3,3.8,4.8,4.8,0,0,1-3.4,3.5,3.8,3.8,0,0,1-4.1-1.3L49.4,55.1l-.5-.6h-.1c0,1.2.1,2.3.2,3.5s.3,4.3.5,6.5-1.6,5.2-4.8,5.2H9.3c-3.2,0-5-2.1-4.8-5.3C5,59,5.4,53.4,5.8,47.8c.2-3.4.5-6.9.8-10.3V36H4.3A4.5,4.5,0,0,1,0,32a3.4,3.4,0,0,1,3.5-3.9H24.7a2.5,2.5,0,0,0,.1-.8,3.1,3.1,0,0,1,3.7-2.5,4.3,4.3,0,0,1,2.8,1.5,5.1,5.1,0,0,0,4.5,1.9c4.9-.2,9.7-.1,14.5-.1A3.5,3.5,0,0,1,53.8,33a4.5,4.5,0,0,1-4.2,3Zm-39,7.9a.4.4,0,0,0-.1.3L6.8,64.9c-.1,1.7.7,2.6,2.4,2.6H44.7c1.8,0,2.7-.9,2.5-2.7l-.9-12.3a1.6,1.6,0,0,0-.5-1.1l-6.8-7a1.3,1.3,0,0,0-1.2-.5H8.4Zm.1-2.3H36.3l-.5-.5-4.5-4.6a1.2,1.2,0,0,0-1.1-.5H8.9Zm30.1-.8.3.3,16,16.4,9,9.3a1.6,1.6,0,0,0,1.6.7,2.5,2.5,0,0,0,1.9-1.8,1.6,1.6,0,0,0-.7-1.9L45.9,43.6l-5.1-5Zm-10-7c-1-1.2-2-2.2-3-3.2s-.3-.2-.5-.2H3.5A1.2,1.2,0,0,0,2.3,32a2.4,2.4,0,0,0,2.5,1.8H28.6Zm7.3-3.4,3,3.2.5.2H49.6a2.2,2.2,0,0,0,1.9-1.2c.7-1.3.1-2.3-1.3-2.2H35.9ZM39,36.9a.1.1,0,0,1-.1-.1l-9.4-9.1a6.1,6.1,0,0,0-1.4-.7c-.7-.1-1.3.4-1,1.1a3,3,0,0,0,.8,1.6l7.3,7.6L37,39Zm6.2,3,.2-.2-.3-3.6H41.7Z"/>
    <path d="M10.9,16.7c.2-1.4.5-2.9.7-4.4a1.5,1.5,0,0,0-.3-1.3L8.4,8.1a1.3,1.3,0,0,1-.5-1.3A1.4,1.4,0,0,1,9.1,6l4-.7a1.1,1.1,0,0,0,.8-.5c.7-1.3,1.3-2.6,1.9-4A1.2,1.2,0,0,1,16.9,0,1.2,1.2,0,0,1,18,.9l1.8,3.8a1.1,1.1,0,0,0,.8.7l4.2.6a1.6,1.6,0,0,1,1,.8A1.4,1.4,0,0,1,25.4,8a27.6,27.6,0,0,1-2.9,3,1.3,1.3,0,0,0-.4,1.3c.3,1.4.5,2.8.7,4.2a2.2,2.2,0,0,1-.4,1.3c-.4.4-.9.2-1.4,0l-3.4-2a1.4,1.4,0,0,0-1.5.1l-3.4,1.9A1.2,1.2,0,0,1,10.9,16.7Zm.6-8.8-.2.3,2.2,1.9a1.7,1.7,0,0,1,.5,1.6c-.2,1-.3,2-.5,3.1.8-.5,1.6-.8,2.3-1.3a1.8,1.8,0,0,1,2.2,0c.7.5,1.5.8,2.3,1.3s-.3-1.8-.5-2.6a2.2,2.2,0,0,1,.8-2.4l1.8-1.9-2.9-.4a1.6,1.6,0,0,1-1.4-1.1c-.3-.8-.8-1.6-1.2-2.6L15.6,6.5a1.5,1.5,0,0,1-1.3,1Z"/>
    <path d="M31.8,12.5l3.1.5c.5.1.9.1,1.2-.3s1.5-1.5,2.2-2.2a1.1,1.1,0,0,1,2,.7c.2,1,.3,2.1.5,3.1s.3.5.5.6l2.8,1.4a1.3,1.3,0,0,1,.9,1.2,1.2,1.2,0,0,1-.9,1.1l-2.8,1.3a1.8,1.8,0,0,0-.5.7,27,27,0,0,0-.4,2.8,1.5,1.5,0,0,1-.9,1.3,1.3,1.3,0,0,1-1.4-.5l-2-2a1,1,0,0,0-1.1-.4l-2.8.5c-.6.1-1.2.2-1.6-.4s-.2-1,.1-1.5,1-1.7,1.4-2.6a1.1,1.1,0,0,0,0-.8l-1.5-2.8C30.1,13.3,30.7,12.5,31.8,12.5Zm1.9,2.6c1.4,1.6,1.2,3.1,0,4.7a3.4,3.4,0,0,1,4.6,1.5,5.7,5.7,0,0,1,.7-2.5c.4-.7,1.4-.9,2.3-1.5a3.2,3.2,0,0,1-2.9-3.7A3.5,3.5,0,0,1,33.7,15.1Z"/>
  </g>
</svg>
