<svg xmlns="http://www.w3.org/2000/svg" width="72" height="72" viewBox="0 0 72 72">
  <g>
    <path d="M0,6V4.5A4.8,4.8,0,0,1,1.9,1.3,12.6,12.6,0,0,1,4.5,0h17c.5.4.8.8.6,1.4s-.8.7-1.4.7H5.2A3.2,3.2,0,0,0,2.1,5,3.1,3.1,0,0,0,4.5,8.3a3.2,3.2,0,0,0,1.4.2h61a3.3,3.3,0,0,0,3-3.3,3.3,3.3,0,0,0-3.5-3.1H26.6c-.2,0-.5.1-.7,0s-.7-.4-.8-.7.1-.7.2-1.1l.3-.3H67.5a4.8,4.8,0,0,1,3.2,1.9A12.6,12.6,0,0,1,72,4.5V6.2a1.4,1.4,0,0,0-.2.6,5.1,5.1,0,0,1-2.4,3,1.1,1.1,0,0,0-.6,1.2V62.2c0,.9,0,1.6,1.1,1.9a3.6,3.6,0,0,1,1.8,2.2l.3.6v1.6A4.8,4.8,0,0,1,68.5,72H3.5A4.8,4.8,0,0,1,0,68.5V67.1A4.2,4.2,0,0,1,2.5,64a1.1,1.1,0,0,0,.7-1.2V10.5c-.1-.2-.1-.4-.3-.5A5.5,5.5,0,0,1,0,6Zm54.5,4.6H16.8a51.4,51.4,0,0,1-5.1,29.6h2.2a5.3,5.3,0,0,1,4.9,6.9,5.2,5.2,0,0,1-4.7,3.7,25.5,25.5,0,0,1,2.4,12.7H29.7V58.2H28.3a3.8,3.8,0,0,1-3.7-4.7c.3-1.7.6-3.5,1-5.2s0-.8-.3-1.2a14.6,14.6,0,0,1-4.1-11A14.8,14.8,0,0,1,22.5,31c0-.1,0-.1-.1-.1l-.2-.3a4.9,4.9,0,0,1-1.9-5.5,5.1,5.1,0,0,1,4.2-3.8,5,5,0,0,1,5.4,2.5.8.8,0,0,0,.9.3A17.7,17.7,0,0,1,41,24c.6.2.9.1,1.2-.4a5.1,5.1,0,0,1,6.3-2,5.3,5.3,0,0,1,3.3,5.9,5.7,5.7,0,0,1-2.3,3.4c0,.1,0,.2.1.2,2.4,6,1.3,11.4-3,16.2a1,1,0,0,0-.2.9c.3,1.8.7,3.6,1.1,5.4a3.9,3.9,0,0,1-3.8,4.6H42.4v5.3h4.4a1,1,0,0,1,1.1,1,1,1,0,0,1-1,1H4.9a2.1,2.1,0,0,0-.8,0,2.1,2.1,0,0,0-2,1.8,2.2,2.2,0,0,0,1.5,2.3H68a2.2,2.2,0,0,0,.4-4.2H52.3l-.9-.2c-.5-.1-.7-.5-.7-1.1a.9.9,0,0,1,.9-.8h3.9a24.9,24.9,0,0,1,2.4-12.6c-3.2-.7-5-2.7-4.9-5.5a5.2,5.2,0,0,1,1.2-3.3c1.4-1.7,3.3-2,5.4-1.9A51.4,51.4,0,0,1,54.5,10.6ZM36,25.3c-1.1.2-2.2.2-3.3.5-6.3,1.2-10.2,6.5-9.3,12.7A12.8,12.8,0,0,0,34,49.5a12.5,12.5,0,0,0,13.4-7.1,11.5,11.5,0,0,0-2.3-13.8A13.6,13.6,0,0,0,36,25.3ZM56.6,10.6c-.1,1.5-.3,2.9-.3,4.3s0,3.9.1,5.8a46.1,46.1,0,0,0,5.1,18.5,1.6,1.6,0,0,0,1.7,1.1h3.4V10.6Zm-51.2,0V40.2H8.3a1.2,1.2,0,0,0,1.4-.8A50,50,0,0,0,15,17.6c0-2.3-.2-4.6-.3-7Zm8.9,52.9a.4.4,0,0,0,.1-.3,21.5,21.5,0,0,0-2.5-12,1,1,0,0,0-.7-.4H5.3V63.5ZM66.7,50.8H61a1.1,1.1,0,0,0-1.1.6,23.5,23.5,0,0,0-2.4,9.7c0,.8.1,1.6.1,2.4h9.1ZM27.6,49.2c-.3,1.6-.7,3.2-1,4.8a1.7,1.7,0,0,0,1.8,2.1H43.7a1.6,1.6,0,0,0,1.7-1.9c-.3-1.7-.6-3.3-1-5A15.1,15.1,0,0,1,27.6,49.2ZM5.3,48.7h8.8l1.2-.4a3.1,3.1,0,0,0,1.5-3.6,3.4,3.4,0,0,0-3.1-2.4H5.3Zm61.4-6.3c-3,0-5.8-.1-8.7,0A3,3,0,0,0,55.1,45a3.2,3.2,0,0,0,3.1,3.7h8.5ZM31.8,63.5h8.4V58.3H31.8ZM28.2,25.1a3.1,3.1,0,0,0-3.3-1.8A3.2,3.2,0,0,0,22.3,26a2.8,2.8,0,0,0,1,2.8l2.4-1.9C26.5,26.2,27.4,25.7,28.2,25.1Zm15.6-.2,4.7,4a2.8,2.8,0,0,0,1.2-3.1,3.3,3.3,0,0,0-2.6-2.5A3.2,3.2,0,0,0,43.8,24.9Z"/>
    <path d="M36,35a7.3,7.3,0,0,1,6.3,3,5.6,5.6,0,0,1-.2,6.9,8.1,8.1,0,0,1-11.9.3c-2.7-3-1.9-7.3,1.8-9.3A8.1,8.1,0,0,1,36,35Zm-4.9,4.8a3.4,3.4,0,0,0,.5,3.9,5.9,5.9,0,0,0,5.2,1.8,5,5,0,0,0,4-2.5,3.1,3.1,0,0,0,.1-3.2C38.6,43.4,33.1,43,31.1,39.8Zm4.9.4h.5A2.7,2.7,0,0,0,39,38.7c.3-.4.3-.8-.3-1.1a6.7,6.7,0,0,0-5-.1c-1,.4-1.1,1-.4,1.7A3.5,3.5,0,0,0,36,40.2Z"/>
    <path d="M27.6,33.3c0-.1-.1-.3,0-.5s.3-1,.9-1a.9.9,0,0,1,1.1.9,2.4,2.4,0,0,1,0,1.2.9.9,0,0,1-1.1,1c-.6,0-.9-.4-1-1.1v-.5Z"/>
    <path d="M44.5,33.3a1.3,1.3,0,0,1-.1.6c0,.6-.3,1-.9,1a.9.9,0,0,1-1.1-.9,2,2,0,0,1,0-1.1,1,1,0,0,1,1-1.1c.6,0,1,.4,1.1,1.1v.4Z"/>
  </g>
</svg>
