<svg xmlns="http://www.w3.org/2000/svg" width="64.2" height="71.7" viewBox="0 0 64.2 71.7">
  <path d="M24.1,37.6c-.9-1.4-.6-2.8-.6-4.3l-3.4,1.1-4.5,1.9a12.7,12.7,0,0,1-1.8.6c-.8.2-1.4-.3-1.6-1.2a4.9,4.9,0,0,1-.1-1.2,3.7,3.7,0,0,1-.1-1.1H9.5a3.3,3.3,0,0,1-3.4-3.4c-.1-2.5,1-4,3.4-4.5l1.9-.3a15.8,15.8,0,0,0,4.4-1.1l11-2.2A16.1,16.1,0,0,1,29,22V20.6a.3.3,0,0,1-.1-.2c-3.3-.8-5.2-3.4-5.3-7.1a39.2,39.2,0,0,1,.8-9,4,4,0,0,1,2.4-3.2A8.4,8.4,0,0,1,30.7,0a2.6,2.6,0,0,1,2.5,1.3c2.3,4.3,4.6,8.5,4.2,13.6A6.4,6.4,0,0,1,35.8,19a.7.7,0,0,0-.1.6,5,5,0,0,0,.4,1.3h.4a37.4,37.4,0,0,1,12.1-4.4,10.3,10.3,0,0,1,2.5-.1h.7c1.2-.2,2.3-.6,3.4-.7a2.5,2.5,0,0,1,2.8,2,6.7,6.7,0,0,1-.4,5.2,3.9,3.9,0,0,1-2.8,1.8,1.1,1.1,0,0,0-1,1.1c-.1,1.8-.7,2.4-2.5,2.5s-4.8.2-7.2.3h-3c.3,1.2.5,2.3.7,3.4a11,11,0,0,1,.3,4,1.9,1.9,0,0,0,.3.8,11.1,11.1,0,0,0,3.2,3.6c2.9,2.5,6.3,4.2,9.7,6l6.3,3.4a3.8,3.8,0,0,1,1.3.9c1.3,1.1,1.6,2.1.9,3.6a20.4,20.4,0,0,1-2.6,3.9A39.1,39.1,0,0,1,43.5,69.4a41,41,0,0,1-13.9,2.3A32,32,0,0,1,7.5,62.9a35.7,35.7,0,0,1-6.2-7.2L.4,53.9c-.6-1.2-.6-2,.6-2.8a44.5,44.5,0,0,1,5.1-3.3l14.2-7.7Zm5.8,31.9,2.5-.2a41.2,41.2,0,0,0,21.4-7.5c2.8-2.1,5.5-4.3,7.3-7.4s1-1.7-.6-2.8l-.5-.3-7.5-4a39.8,39.8,0,0,1-9.8-6.5h-.6l-3,1a53.8,53.8,0,0,1-11.3,1.4,25.2,25.2,0,0,1-6.7-.4,1.2,1.2,0,0,0-1,.1c-3.2,1.6-6.3,3.3-9.4,5L2.9,52.4c-.5.3-.6.6-.2,1.1S5.3,57.3,6.8,59C13,65.7,20.6,69.4,29.9,69.5ZM40,34.9a3.8,3.8,0,0,1-.1-1L39,29.4c-.3-2.1.3-3,2.4-3.1l5.5-.2h3.9l.8-.4a11.7,11.7,0,0,0-.6-6.4,1,1,0,0,0-1.3-.7c-2.3.6-4.6,1.1-6.8,1.8a21.7,21.7,0,0,0-7.6,4.1,5.1,5.1,0,0,1-2.4,1,8.8,8.8,0,0,1-2.7-.6,5.6,5.6,0,0,0-3.1-.6L15.3,26.8c-.3,0-.7.3-.7.6-.7,2.3-.4,4.6-.3,7L17,33.2a62.1,62.1,0,0,1,6.1-2c1.7-.5,2.7.5,2.7,2.3,0,.2-.1.4-.1.6-.1,2.4.1,2.7,2.5,2.6a38.6,38.6,0,0,0,4.9-.6Zm-5.3-25h-.3l-8.1,2.2c-.1,0-.3.3-.3.4a4.9,4.9,0,0,0,3.5,5.7,8.2,8.2,0,0,0,2.2.2A3,3,0,0,0,35,15.7,12.7,12.7,0,0,0,34.7,9.9Zm-.9-2.3c-.7-1.6-1.4-3.1-2.2-4.7a1.1,1.1,0,0,0-1.1-.7,8.1,8.1,0,0,0-3.3,1.4.5.5,0,0,0-.3.4c-.4,1.9-.7,3.8-1,5.7ZM23.4,41A51.9,51.9,0,0,0,41,38.9l-.7-1.3c-.1-.4-.4-.4-.7-.3l-5.8,1a24.2,24.2,0,0,1-7.6.5h-.4C25,39.5,24.3,40.2,23.4,41ZM12.1,27.5l-2.1.3c-1.5.2-1.8,1.1-1.6,2.6a.9.9,0,0,0,.9.8h2.2a.7.7,0,0,0,.4-.5C12,29.6,12,28.6,12.1,27.5Zm41-9.4c.2.8.5,1.5.6,2.1l.3,2.4a5.5,5.5,0,0,0,1.6-1.1,4,4,0,0,0,.3-3.2c-.1-.4-.3-.7-.8-.6ZM31.4,20.7c-.1.6-.1,1.1-.2,1.7a.7.7,0,0,0,.3.5,1.8,1.8,0,0,0,2.4-.3.4.4,0,0,0,.2-.5,10.4,10.4,0,0,0-.6-1.6Z"/>
</svg>
