<svg xmlns="http://www.w3.org/2000/svg" width="72" height="50.4" viewBox="0 0 72 50.4">
  <g>
    <g>
      <path d="M0,24.8A1.8,1.8,0,0,1,1.8,24H6V6.5c0-1.4.4-1.7,1.7-1.7h2.7L9.8,2.1C9.4.5,9.8,0,11.4,0h3.8c1.1,0,1.4.3,1.7,1.3s.5,2.3.8,3.5h3.5c-.2-1.1-.5-2.1-.7-3.1S20.7,0,21.9,0h4.2c1,0,1.3.3,1.6,1.2s.5,2.4.8,3.6h25a1.7,1.7,0,0,1,1.8,1.1L64,23.3a1,1,0,0,0,1.1.7h5.2a1.7,1.7,0,0,1,1.7.8v.8l-.3.4c-2.2,4.9-4.5,9.8-6.8,14.6,0,.2-.1.3-.2.5l2.8,1.3a13.7,13.7,0,0,0,2.9.7A2,2,0,0,1,72,44v.7a1.7,1.7,0,0,1-1.7.9,11.3,11.3,0,0,1-4.7-1.5,7.1,7.1,0,0,0-6.9,0l-1.8.8a9.8,9.8,0,0,1-8.8-.8,6.8,6.8,0,0,0-6.9,0,20.8,20.8,0,0,1-3,1.2,10,10,0,0,1-7.5-1.2,6.9,6.9,0,0,0-6.8-.1,15.1,15.1,0,0,1-1.8.9,9.5,9.5,0,0,1-8.5-.7,6.3,6.3,0,0,0-2.3-.8,7.2,7.2,0,0,0-5.5,1,8.8,8.8,0,0,1-4.1,1.2A1.7,1.7,0,0,1,0,44.7V44a1.7,1.7,0,0,1,1.6-.8l1.9-.3c0-.2-.1-.3-.1-.4-.8-4-1.5-7.9-2.3-11.9-.4-1.7-.7-3.3-1.1-5ZM5.7,41.7l1.7-.6a9.8,9.8,0,0,1,7.5,1.1,7.4,7.4,0,0,0,4.3,1A8.6,8.6,0,0,0,22.7,42a9.5,9.5,0,0,1,5-1.2,10.4,10.4,0,0,1,4.9,1.5,6.4,6.4,0,0,0,5.4.6,17.5,17.5,0,0,0,2.4-1.1,10.2,10.2,0,0,1,4.5-1,10.6,10.6,0,0,1,5.2,1.6,6.4,6.4,0,0,0,4.5.6,13.9,13.9,0,0,0,3.2-1.2,8.2,8.2,0,0,1,3.7-1,1,1,0,0,0,1-.6c2-4.4,4.1-8.7,6.1-13.1a1.4,1.4,0,0,0,.2-.6H2.7ZM61.6,24c-1-2.2-2.1-4.1-3-6.2a1.6,1.6,0,0,0-1.7-1H8.5V24ZM8.5,7.2v7.1H56.8L53.6,7.9a1,1,0,0,0-1.1-.7H8.5ZM23.2,2.4c.3,2.4.4,2.5,2.7,2.4H26l-.5-2.3Zm-8,2.4a12.9,12.9,0,0,0-.5-2.1.5.5,0,0,0-.3-.3H12.3l.6,2.4Z"/>
      <path d="M72,49.5c-.6,1.2-1.6.9-2.6.8a10.3,10.3,0,0,1-4-1.5,6.3,6.3,0,0,0-5.2-.5,12.2,12.2,0,0,0-2.4,1,9.4,9.4,0,0,1-8.8,0c-2-1-4-1.7-6.2-1a12.2,12.2,0,0,0-2.4,1,9.4,9.4,0,0,1-8.8,0,8.3,8.3,0,0,0-5.7-1.2l-2.7,1.1a9.6,9.6,0,0,1-8.1.6l-1.7-.9a6.8,6.8,0,0,0-6.9,0,12.2,12.2,0,0,1-4.9,1.5A1.5,1.5,0,0,1,0,49.5v-.7A1.5,1.5,0,0,1,1.4,48,6.6,6.6,0,0,0,5,46.9l1.4-.7A10,10,0,0,1,15,47a7.1,7.1,0,0,0,7.2.1A9.9,9.9,0,0,1,25,45.9a10.1,10.1,0,0,1,7.6,1.2,6.9,6.9,0,0,0,6.7.1l1.9-.9a9.7,9.7,0,0,1,8.6.7,7.2,7.2,0,0,0,7.1.1,18.8,18.8,0,0,1,3-1.2,9.7,9.7,0,0,1,7.4,1.2,10.1,10.1,0,0,0,3.1.8,2.6,2.6,0,0,1,1.6.9Z"/>
      <path d="M27.6,32.4A3.6,3.6,0,0,1,24,36a3.6,3.6,0,1,1,3.6-3.6ZM24,33.6a1.3,1.3,0,0,0,1.2-1.2A1.2,1.2,0,0,0,24,31.2a1.2,1.2,0,1,0,0,2.4Z"/>
      <path d="M45.6,28.8a3.6,3.6,0,0,1,3.6,3.6A3.6,3.6,0,0,1,45.6,36a3.6,3.6,0,0,1,0-7.2Zm0,2.4a1.2,1.2,0,1,0,0,2.4,1.2,1.2,0,0,0,0-2.4Z"/>
      <path d="M16.8,32.5a3.6,3.6,0,1,1-7.2-.2,3.6,3.6,0,0,1,7.2.2Zm-3.6,1.1a1.3,1.3,0,0,0,1.2-1.1,1.2,1.2,0,0,0-1.2-1.3A1.3,1.3,0,0,0,12,32.3,1.2,1.2,0,0,0,13.2,33.6Z"/>
      <path d="M34.8,28.8a3.6,3.6,0,0,1,3.6,3.6A3.6,3.6,0,0,1,34.8,36a3.6,3.6,0,1,1,0-7.2Zm0,2.4a1.2,1.2,0,1,0,0,2.4A1.3,1.3,0,0,0,36,32.4,1.2,1.2,0,0,0,34.8,31.2Z"/>
      <path d="M56.4,28.8A3.6,3.6,0,0,1,60,32.3,3.7,3.7,0,0,1,56.4,36a3.6,3.6,0,0,1,0-7.2Zm1.2,3.6a1.2,1.2,0,1,0-1.2,1.2A1.3,1.3,0,0,0,57.6,32.4Z"/>
    </g>
    <g>
      <path d="M6.5,14.3V8.4c0-.8.5-1.2,1.3-1.2h3.1c-.2-.9-.3-1.7-.5-2.4l-.3-.9a1.2,1.2,0,0,1,1.2-1.5c1.6-.1,3.2,0,4.9,0s1,.4,1.1,1.1.6,2.4,1,3.6h3.5c-.3-1-.5-1.9-.7-2.8a1.7,1.7,0,0,1-.1-1,1,1,0,0,1,1.1-.9H27c.7,0,1,.4,1.2,1s.5,2,.7,3.1.4.7,1,.7h24a2,2,0,0,1,2.2,1.3c.9,1.9,1.9,3.8,2.9,5.8Zm6.6-4.7h-.7a1.2,1.2,0,0,0-1.1,1.1,1.1,1.1,0,0,0,1.1,1.2h1.4a1,1,0,0,0,1.1-1.1,1.3,1.3,0,0,0-1.1-1.2Zm6,0h-.6a1.3,1.3,0,0,0-1.2,1.2A1.3,1.3,0,0,0,18.5,12h1c.9,0,1.4-.5,1.4-1.2s-.5-1.2-1.5-1.2Zm5.9,0h-.5a1.2,1.2,0,0,0,0,2.4h1c.9-.1,1.5-.5,1.5-1.3a1.3,1.3,0,0,0-1.4-1.1Zm6,0h-.5a1.2,1.2,0,0,0,0,2.4h1.1c.9-.1,1.4-.5,1.4-1.3a1.3,1.3,0,0,0-1.4-1.1ZM37.2,12Q39,12,39,10.8T37.2,9.6q-1.8,0-1.8,1.2T37.2,12Zm6.2-2.4h-.9a1.3,1.3,0,0,0-1.1,1.1,1.1,1.1,0,0,0,1.1,1.2,3.3,3.3,0,0,0,1.7,0,2.3,2.3,0,0,0,.8-1.1.9.9,0,0,0-.9-1.1Zm5.9,0h-.6a1.2,1.2,0,0,0-1.2,1.2A1.2,1.2,0,0,0,48.6,12h1a1.4,1.4,0,0,0,1.5-1.2c0-.7-.6-1.2-1.5-1.2Z"/>
      <path d="M64,24H6V16.7H59.5a1.2,1.2,0,0,1,1.3.9C61.8,19.7,62.9,21.8,64,24ZM12.7,19.2h-.6a1.2,1.2,0,0,0-1.2,1.2c-.1.6.4,1.1,1.1,1.2h1.3a1.3,1.3,0,0,0,1.2-1.2,1.2,1.2,0,0,0-1.2-1.2Zm6.1,0h-.6a1.3,1.3,0,0,0-1.3,1.2,1.4,1.4,0,0,0,1.2,1.2H19c1,0,1.6-.4,1.6-1.2S20,19.2,19,19.2Zm6.1,2.4q1.8,0,1.8-1.2t-1.8-1.2c-1.3,0-1.9.4-1.9,1.2S23.7,21.6,24.9,21.6Zm6,0h.8a1.2,1.2,0,0,0,1.1-1.2,1.3,1.3,0,0,0-1.2-1.2H30.5a1.3,1.3,0,0,0-1.4,1.2,1.4,1.4,0,0,0,1.4,1.2Zm6.3,0h.5a1.2,1.2,0,0,0,0-2.4h-1a1.4,1.4,0,0,0-1.5,1.2c0,.7.6,1.2,1.5,1.2Zm6.1-2.4h-.8a1.3,1.3,0,0,0-1.2,1.1,1.3,1.3,0,0,0,1.1,1.3,4.7,4.7,0,0,0,1.7-.1,1.8,1.8,0,0,0,.8-1.1,1,1,0,0,0-.8-1.2Zm6,0h-.7a1.2,1.2,0,0,0-.1,2.4h1.6a1,1,0,0,0,1-1.1,1.2,1.2,0,0,0-1-1.2Zm6,0H55c-.9,0-1.5.5-1.5,1.2s.6,1.2,1.5,1.2h.3c1.2,0,1.9-.4,1.9-1.2S56.6,19.2,55.3,19.2Z"/>
    </g>
  </g>
</svg>
