<?xml version="1.0" encoding="utf-8"?>
<!-- Generator: Adobe Illustrator 29.2.1, SVG Export Plug-In . SVG Version: 9.03 Build 55982)  -->
<svg version="1.1" id="Layer_1" xmlns="http://www.w3.org/2000/svg" xmlns:xlink="http://www.w3.org/1999/xlink" x="0px" y="0px"
	 viewBox="0 0 1249.4 1005.6" style="enable-background:new 0 0 1249.4 1005.6;" xml:space="preserve">
<style type="text/css">
	.st0{clip-path:url(#SVGID_00000170277708083375674400000000558931985259714434_);fill:#2051A4;}
	
		.st1{clip-path:url(#SVGID_00000170277708083375674400000000558931985259714434_);fill:none;stroke:#2252A3;stroke-width:3;stroke-miterlimit:10;}
	.st2{clip-path:url(#SVGID_00000116232137165017567340000016848594615389861531_);}
	.st3{fill:#1E93D1;}
	.st4{clip-path:url(#SVGID_00000080904262024066156180000000997183399877587588_);fill:#0095DA;}
	.st5{clip-path:url(#SVGID_00000080904262024066156180000000997183399877587588_);fill:#2051A4;}
</style>
<g>
	<defs>
		<rect id="SVGID_1_" y="0" width="1249.4" height="1005.6"/>
	</defs>
	<clipPath id="SVGID_00000158724082723235828310000007351929951803783868_">
		<use xlink:href="#SVGID_1_"  style="overflow:visible;"/>
	</clipPath>
	<path style="clip-path:url(#SVGID_00000158724082723235828310000007351929951803783868_);fill:#2051A4;" d="M253.9,544.2
		c24.7,0,42.2,17.4,42.2,43.3c0,25.9-17.5,43.1-42.2,43.1c-24.7,0-42.1-17.1-42.1-43.1C211.8,561.5,229.2,544.2,253.9,544.2
		 M253.9,546.9c-16.7,0-30.9,16.4-30.9,40.4c0,24,14.2,40.4,30.9,40.4s31-16.4,31-40.4C284.9,563.4,270.6,546.9,253.9,546.9"/>
	
		<path style="clip-path:url(#SVGID_00000158724082723235828310000007351929951803783868_);fill:none;stroke:#2252A3;stroke-width:3;stroke-miterlimit:10;" d="
		M253.9,544.2c24.7,0,42.2,17.4,42.2,43.3s-17.5,43.1-42.2,43.1c-24.7,0-42.1-17.1-42.1-43.1S229.2,544.2,253.9,544.2z M253.9,546.9
		c-16.7,0-30.9,16.4-30.9,40.4c0,24,14.2,40.4,30.9,40.4s31-16.4,31-40.4C284.9,563.4,270.6,546.9,253.9,546.9z"/>
	<path style="clip-path:url(#SVGID_00000158724082723235828310000007351929951803783868_);fill:#2051A4;" d="M307,598.2
		c0-20.3,14.1-34.2,32.7-34.2c11.1,0,21.1,7.7,21.1,15c0,3-2.2,4.7-4.8,4.7c-2.8,0-4.7-1.6-4.7-4.8c0-6.5-3.1-13-12.1-13
		c-11.7,0-21.7,10.9-21.7,30.5c0,13.6,8.2,27.3,23.2,27.3c10.4,0,16.9-7.5,22-15.7c0.4-0.6,1.4,0.5,1.3,0.8
		c-6.3,12.7-13.9,21.6-27.4,21.6C320.8,630.5,307,617.1,307,598.2"/>
	
		<path style="clip-path:url(#SVGID_00000158724082723235828310000007351929951803783868_);fill:none;stroke:#2252A3;stroke-width:3;stroke-miterlimit:10;" d="
		M307,598.2c0-20.3,14.1-34.2,32.7-34.2c11.1,0,21.1,7.7,21.1,15c0,3-2.2,4.7-4.8,4.7c-2.8,0-4.7-1.6-4.7-4.8c0-6.5-3.1-13-12.1-13
		c-11.7,0-21.7,10.9-21.7,30.5c0,13.6,8.2,27.3,23.2,27.3c10.4,0,16.9-7.5,22-15.7c0.4-0.6,1.4,0.5,1.3,0.8
		c-6.3,12.7-13.9,21.6-27.4,21.6C320.8,630.5,307,617.1,307,598.2z"/>
	<path style="clip-path:url(#SVGID_00000158724082723235828310000007351929951803783868_);fill:#2051A4;" d="M408.8,564.1
		c15.4,0,23.5,10.6,23.5,19.3c0,6-4.1,11-12.7,11h-33.5v2.3c0,12.1,7.5,27,24.5,27c10.6,0,17.1-7.5,22.2-15.7
		c0.4-0.6,1.4,0.5,1.3,0.8c-6.3,12.7-13.9,21.6-27.4,21.6c-18.5,0-31.9-14-31.9-32.3C374.8,578.4,389.3,564.1,408.8,564.1
		 M413.9,592.6c6,0,9.5-5.8,9.5-11.9c0-7.1-4.6-14.7-15.2-14.7c-11.2,0-20.3,12.4-22.2,26.7H413.9z"/>
	
		<path style="clip-path:url(#SVGID_00000158724082723235828310000007351929951803783868_);fill:none;stroke:#2252A3;stroke-width:3;stroke-miterlimit:10;" d="
		M408.8,564.1c15.4,0,23.5,10.6,23.5,19.3c0,6-4.1,11-12.7,11h-33.5v2.3c0,12.1,7.5,27,24.5,27c10.6,0,17.1-7.5,22.2-15.7
		c0.4-0.6,1.4,0.5,1.3,0.8c-6.3,12.7-13.9,21.6-27.4,21.6c-18.5,0-31.9-14-31.9-32.3C374.8,578.4,389.3,564.1,408.8,564.1z
		 M413.9,592.6c6,0,9.5-5.8,9.5-11.9c0-7.1-4.6-14.7-15.2-14.7c-11.2,0-20.3,12.4-22.2,26.7H413.9z"/>
	<path style="clip-path:url(#SVGID_00000158724082723235828310000007351929951803783868_);fill:#2051A4;" d="M445.3,615.1
		c0-9.4,5.8-16.7,26.2-22c4.1-1.1,8.8-2.1,14.1-3V584c0-11.8-7.1-17.4-15-17.4c-8.6,0-13.5,6.8-13.5,15.7c0,3.1-2.7,4.7-5.2,4.7
		c-2.7,0-5.3-1.6-5.3-4.8c0-10.9,18.9-18.1,27.6-18.1c11.2,0,22.6,3.4,22.6,21v35c0,3.4,1.1,5.8,3.9,5.8c2.1,0,3.9-1.3,6-4.1
		c0.4-0.6,1.8,0.6,1.6,1.1c-3.1,4.3-8.4,7.7-13.5,7.7c-8,0-9.1-6.8-9.1-10.1v-8.8h-0.2c-2.7,8.4-10,18.8-21.6,18.8
		C453.8,630.5,445.3,624.5,445.3,615.1 M485.6,607.2V592c-5.4,0.8-9.9,1.9-13.5,3c-15.2,4.9-16.1,12.3-16.1,17.1
		c0,7.2,5.8,11.9,12.4,11.9C476.8,624.1,482.5,617.3,485.6,607.2"/>
	
		<path style="clip-path:url(#SVGID_00000158724082723235828310000007351929951803783868_);fill:none;stroke:#2252A3;stroke-width:3;stroke-miterlimit:10;" d="
		M445.3,615.1c0-9.4,5.8-16.7,26.2-22c4.1-1.1,8.8-2.1,14.1-3V584c0-11.8-7.1-17.4-15-17.4c-8.6,0-13.5,6.8-13.5,15.7
		c0,3.1-2.7,4.7-5.2,4.7c-2.7,0-5.3-1.6-5.3-4.8c0-10.9,18.9-18.1,27.6-18.1c11.2,0,22.6,3.4,22.6,21v35c0,3.4,1.1,5.8,3.9,5.8
		c2.1,0,3.9-1.3,6-4.1c0.4-0.6,1.8,0.6,1.6,1.1c-3.1,4.3-8.4,7.7-13.5,7.7c-8,0-9.1-6.8-9.1-10.1v-8.8h-0.2
		c-2.7,8.4-10,18.8-21.6,18.8C453.8,630.5,445.3,624.5,445.3,615.1z M485.6,607.2V592c-5.4,0.8-9.9,1.9-13.5,3
		c-15.2,4.9-16.1,12.3-16.1,17.1c0,7.2,5.8,11.9,12.4,11.9C476.8,624.1,482.5,617.3,485.6,607.2z"/>
	<path style="clip-path:url(#SVGID_00000158724082723235828310000007351929951803783868_);fill:#2051A4;" d="M513.7,571.7
		c3.1-4.3,8.6-7.7,13.6-7.7c8,0,9.1,6.8,9.1,10.1v5.3l3.4-4.1c6.3-7.6,13.8-11.1,20.3-11.1c9.4,0,17,7.1,17,19.7v36
		c0,3.4,1.1,5.8,3.9,5.8c2.1,0,3.9-1.3,6-4.1c0.4-0.6,1.8,0.6,1.6,1.1c-3.1,4.3-8.6,7.7-13.6,7.7c-8,0-9.1-6.8-9.1-10.1v-36.3
		c0-7.6-5.4-14-12.4-14c-3.7,0-8.1,1.9-12.1,6.6l-4.9,5.8v46.9h-11.2v-54.8c0-3.4-1.1-5.8-3.9-5.8c-2.1,0-3.9,1.3-6,4.1
		C515,573.4,513.5,572.2,513.7,571.7"/>
	
		<path style="clip-path:url(#SVGID_00000158724082723235828310000007351929951803783868_);fill:none;stroke:#2252A3;stroke-width:3;stroke-miterlimit:10;" d="
		M513.7,571.7c3.1-4.3,8.6-7.7,13.6-7.7c8,0,9.1,6.8,9.1,10.1v5.3l3.4-4.1c6.3-7.6,13.8-11.1,20.3-11.1c9.4,0,17,7.1,17,19.7v36
		c0,3.4,1.1,5.8,3.9,5.8c2.1,0,3.9-1.3,6-4.1c0.4-0.6,1.8,0.6,1.6,1.1c-3.1,4.3-8.6,7.7-13.6,7.7c-8,0-9.1-6.8-9.1-10.1v-36.3
		c0-7.6-5.4-14-12.4-14c-3.7,0-8.1,1.9-12.1,6.6l-4.9,5.8v46.9h-11.2v-54.8c0-3.4-1.1-5.8-3.9-5.8c-2.1,0-3.9,1.3-6,4.1
		C515,573.4,513.5,572.2,513.7,571.7z"/>
	<path style="clip-path:url(#SVGID_00000158724082723235828310000007351929951803783868_);fill:#2051A4;" d="M673,544.2
		c24.7,0,42.2,17.4,42.2,43.3c0,19.1-9.4,33.3-24.1,39.6l0.1,0.1c5.4,6.3,9.5,8.8,19.4,8.8c1,0,1.9-0.1,3-0.4
		c-3.6,1.9-9.9,4.1-13.2,4.1c-4.9,0-9.9,0-19.4-9.7c-2.7,0.4-5.3,0.6-8.1,0.6c-24.7,0-42.1-17.1-42.1-43.1
		C630.9,561.5,648.3,544.2,673,544.2 M673,546.9c-16.7,0-30.9,16.4-30.9,40.4c0,15.7,6,28.1,14.8,34.9c5.6-3.3,10.7-4.7,15.6-4.7
		c5.8,0,10.9,2.2,15,5.8c9.8-6.5,16.5-19.4,16.5-36C704.1,563.4,689.7,546.9,673,546.9 M673,627.8c2.2,0,4.2-0.2,6.3-0.7
		c-2.4-3.5-5.3-6.3-9.9-6.3c-2.7,0-5.8,0.8-9.8,3.1C663.7,626.5,668.3,627.8,673,627.8"/>
	
		<path style="clip-path:url(#SVGID_00000158724082723235828310000007351929951803783868_);fill:none;stroke:#2252A3;stroke-width:3;stroke-miterlimit:10;" d="
		M673,544.2c24.7,0,42.2,17.4,42.2,43.3c0,19.1-9.4,33.3-24.1,39.6l0.1,0.1c5.4,6.3,9.5,8.8,19.4,8.8c1,0,1.9-0.1,3-0.4
		c-3.6,1.9-9.9,4.1-13.2,4.1c-4.9,0-9.9,0-19.4-9.7c-2.7,0.4-5.3,0.6-8.1,0.6c-24.7,0-42.1-17.1-42.1-43.1S648.3,544.2,673,544.2z
		 M673,546.9c-16.7,0-30.9,16.4-30.9,40.4c0,15.7,6,28.1,14.8,34.9c5.6-3.3,10.7-4.7,15.6-4.7c5.8,0,10.9,2.2,15,5.8
		c9.8-6.5,16.5-19.4,16.5-36C704.1,563.4,689.7,546.9,673,546.9z M673,627.8c2.2,0,4.2-0.2,6.3-0.7c-2.4-3.5-5.3-6.3-9.9-6.3
		c-2.7,0-5.8,0.8-9.8,3.1C663.7,626.5,668.3,627.8,673,627.8z"/>
	<path style="clip-path:url(#SVGID_00000158724082723235828310000007351929951803783868_);fill:#2051A4;" d="M723,566.7
		c5.1-1,12.2-1.8,17.4-2.8c1.2-0.2,1.8-0.1,1.8,0.8v46c0,7.6,5.4,14,12.4,14c3.7,0,8.1-1.9,12.1-6.6l4.9-5.8v-32.2
		c0-7.1-0.7-12.1-7.8-11.7c-0.6,0-0.6-1.6-0.1-1.7c5.1-1,12.2-1.8,17.4-2.8c1.2-0.2,1.8-0.1,1.8,0.8v55c0,3.4,1.1,5.8,3.9,5.8
		c2.1,0,3.9-1.3,6-4.1c0.4-0.6,1.8,0.6,1.6,1.1c-3.1,4.3-8.6,7.7-13.6,7.7c-8,0-9.1-6.8-9.1-10.1v-4.9l-3.4,4.1
		c-6.3,7.6-13.8,11.1-20.3,11.1c-9.4,0-17-7.1-17-19.7v-30.7c0-7.1-0.7-12.1-7.8-11.7C722.5,568.4,722.5,566.9,723,566.7"/>
	
		<path style="clip-path:url(#SVGID_00000158724082723235828310000007351929951803783868_);fill:none;stroke:#2252A3;stroke-width:3;stroke-miterlimit:10;" d="
		M723,566.7c5.1-1,12.2-1.8,17.4-2.8c1.2-0.2,1.8-0.1,1.8,0.8v46c0,7.6,5.4,14,12.4,14c3.7,0,8.1-1.9,12.1-6.6l4.9-5.8v-32.2
		c0-7.1-0.7-12.1-7.8-11.7c-0.6,0-0.6-1.6-0.1-1.7c5.1-1,12.2-1.8,17.4-2.8c1.2-0.2,1.8-0.1,1.8,0.8v55c0,3.4,1.1,5.8,3.9,5.8
		c2.1,0,3.9-1.3,6-4.1c0.4-0.6,1.8,0.6,1.6,1.1c-3.1,4.3-8.6,7.7-13.6,7.7c-8,0-9.1-6.8-9.1-10.1v-4.9l-3.4,4.1
		c-6.3,7.6-13.8,11.1-20.3,11.1c-9.4,0-17-7.1-17-19.7v-30.7c0-7.1-0.7-12.1-7.8-11.7C722.5,568.4,722.5,566.9,723,566.7z"/>
	<path style="clip-path:url(#SVGID_00000158724082723235828310000007351929951803783868_);fill:#2051A4;" d="M835.6,564.1
		c15.4,0,23.5,10.6,23.5,19.3c0,6-4.1,11-12.7,11h-33.5v2.3c0,12.1,7.5,27,24.5,27c10.6,0,17.1-7.5,22.2-15.7
		c0.4-0.6,1.4,0.5,1.3,0.8c-6.3,12.7-13.9,21.6-27.4,21.6c-18.5,0-31.9-14-31.9-32.3C801.7,578.4,816.2,564.1,835.6,564.1
		 M840.8,592.6c6,0,9.5-5.8,9.5-11.9c0-7.1-4.6-14.7-15.2-14.7c-11.2,0-20.3,12.4-22.2,26.7H840.8z"/>
	
		<path style="clip-path:url(#SVGID_00000158724082723235828310000007351929951803783868_);fill:none;stroke:#2252A3;stroke-width:3;stroke-miterlimit:10;" d="
		M835.6,564.1c15.4,0,23.5,10.6,23.5,19.3c0,6-4.1,11-12.7,11h-33.5v2.3c0,12.1,7.5,27,24.5,27c10.6,0,17.1-7.5,22.2-15.7
		c0.4-0.6,1.4,0.5,1.3,0.8c-6.3,12.7-13.9,21.6-27.4,21.6c-18.5,0-31.9-14-31.9-32.3C801.7,578.4,816.2,564.1,835.6,564.1z
		 M840.8,592.6c6,0,9.5-5.8,9.5-11.9c0-7.1-4.6-14.7-15.2-14.7c-11.2,0-20.3,12.4-22.2,26.7H840.8z"/>
	<path style="clip-path:url(#SVGID_00000158724082723235828310000007351929951803783868_);fill:#2051A4;" d="M905.7,564.1
		c15.4,0,23.5,10.6,23.5,19.3c0,6-4.1,11-12.7,11H883v2.3c0,12.1,7.5,27,24.5,27c10.6,0,17.1-7.5,22.2-15.7c0.4-0.6,1.4,0.5,1.3,0.8
		c-6.3,12.7-13.9,21.6-27.4,21.6c-18.5,0-31.9-14-31.9-32.3C871.8,578.4,886.3,564.1,905.7,564.1 M910.9,592.6c6,0,9.5-5.8,9.5-11.9
		c0-7.1-4.6-14.7-15.2-14.7c-11.2,0-20.3,12.4-22.2,26.7H910.9z"/>
	
		<path style="clip-path:url(#SVGID_00000158724082723235828310000007351929951803783868_);fill:none;stroke:#2252A3;stroke-width:3;stroke-miterlimit:10;" d="
		M905.7,564.1c15.4,0,23.5,10.6,23.5,19.3c0,6-4.1,11-12.7,11H883v2.3c0,12.1,7.5,27,24.5,27c10.6,0,17.1-7.5,22.2-15.7
		c0.4-0.6,1.4,0.5,1.3,0.8c-6.3,12.7-13.9,21.6-27.4,21.6c-18.5,0-31.9-14-31.9-32.3C871.8,578.4,886.3,564.1,905.7,564.1z
		 M910.9,592.6c6,0,9.5-5.8,9.5-11.9c0-7.1-4.6-14.7-15.2-14.7c-11.2,0-20.3,12.4-22.2,26.7H910.9z"/>
	<path style="clip-path:url(#SVGID_00000158724082723235828310000007351929951803783868_);fill:#2051A4;" d="M938.4,571.7
		c3.1-4.3,8.6-7.7,13.6-7.7c8,0,9.1,6.8,9.1,10.1v5.3l3.4-4.1c6.3-7.6,13.8-11.1,20.3-11.1c9.4,0,17,7.1,17,19.7v36
		c0,3.4,1.1,5.8,3.9,5.8c2.1,0,3.9-1.3,6-4.1c0.4-0.6,1.8,0.6,1.6,1.1c-3.1,4.3-8.6,7.7-13.6,7.7c-8,0-9.1-6.8-9.1-10.1v-36.3
		c0-7.6-5.4-14-12.4-14c-3.7,0-8.1,1.9-12.1,6.6l-4.9,5.8v46.9h-11.2v-54.8c0-3.4-1.1-5.8-3.9-5.8c-2.1,0-3.9,1.3-6,4.1
		C939.6,573.4,938.2,572.2,938.4,571.7"/>
	
		<path style="clip-path:url(#SVGID_00000158724082723235828310000007351929951803783868_);fill:none;stroke:#2252A3;stroke-width:3;stroke-miterlimit:10;" d="
		M938.4,571.7c3.1-4.3,8.6-7.7,13.6-7.7c8,0,9.1,6.8,9.1,10.1v5.3l3.4-4.1c6.3-7.6,13.8-11.1,20.3-11.1c9.4,0,17,7.1,17,19.7v36
		c0,3.4,1.1,5.8,3.9,5.8c2.1,0,3.9-1.3,6-4.1c0.4-0.6,1.8,0.6,1.6,1.1c-3.1,4.3-8.6,7.7-13.6,7.7c-8,0-9.1-6.8-9.1-10.1v-36.3
		c0-7.6-5.4-14-12.4-14c-3.7,0-8.1,1.9-12.1,6.6l-4.9,5.8v46.9h-11.2v-54.8c0-3.4-1.1-5.8-3.9-5.8c-2.1,0-3.9,1.3-6,4.1
		C939.6,573.4,938.2,572.2,938.4,571.7z"/>
</g>
<g>
	<defs>
		<rect id="SVGID_00000157268402592569823550000006827231184363330467_" width="1249.4" height="1005.6"/>
	</defs>
	<clipPath id="SVGID_00000039822802240082565750000001797580160043607963_">
		<use xlink:href="#SVGID_00000157268402592569823550000006827231184363330467_"  style="overflow:visible;"/>
	</clipPath>
	<g style="clip-path:url(#SVGID_00000039822802240082565750000001797580160043607963_);">
		<path class="st3" d="M273.9,691.5v-25.3h3.9v21.6h16.1v3.7H273.9z"/>
		<path class="st3" d="M322.5,688.3c-2.3,2.8-6.5,3.7-10,3.7c-3.7,0-7.8-1.1-10-4.2c-1.3-1.9-1.5-3.7-1.5-5.9v-15.7h3.8v15.7
			c0,1.8,0.1,3.2,1.5,4.5c1.7,1.6,4.5,1.9,6.7,1.9c4.9,0,7.5-1.4,7.5-6.4v-15.7h3.8v15.7C324.4,684.5,324.2,686.2,322.5,688.3z"/>
		<path class="st3" d="M353.3,691.5l-8.1-10.6l-8.4,10.6h-4.9l10.9-13.7l-8.7-11.6h4.7l6.5,8.4l6.6-8.4h4.8l-9,11.6l10.6,13.7H353.3
			z"/>
		<path class="st3" d="M387.1,688.3c-2.3,2.8-6.5,3.7-10,3.7c-3.7,0-7.8-1.1-10-4.2c-1.3-1.9-1.5-3.7-1.5-5.9v-15.7h3.8v15.7
			c0,1.8,0.1,3.2,1.5,4.5c1.7,1.6,4.5,1.9,6.7,1.9c4.9,0,7.5-1.4,7.5-6.4v-15.7h3.8v15.7C389,684.5,388.8,686.2,387.1,688.3z"/>
		<path class="st3" d="M418.6,680.9l5.5,10.6h-4.4l-5.3-10.5h-9.9v10.5h-3.9v-25.3h15.7c4.8,0,8.3,2.6,8.3,7.5
			C424.7,677.5,422.4,680,418.6,680.9z M416.4,669.9h-11.8v7.5h11.8c2.6,0,4.5-1.2,4.5-3.9C420.9,670.8,418.9,669.9,416.4,669.9z"/>
		<path class="st3" d="M443.5,680.5v11h-3.8v-11l-10.7-14.3h4.6l8.1,10.7l8-10.7h4.8L443.5,680.5z"/>
		<path class="st3" d="M496.9,688.1c-2.4,2.5-4.9,3.4-8.4,3.4h-12.9v-25.3h12.8c7.2,0,12.5,5.7,12.5,12.5
			C500.8,682.2,499.4,685.7,496.9,688.1z M488.4,669.9h-9v17.9h9.1c5.1,0,8.5-4.1,8.5-8.8C496.9,674.1,493.9,669.9,488.4,669.9z"/>
		<path class="st3" d="M509.2,691.5v-25.3h3.8v25.3H509.2z"/>
		<path class="st3" d="M544.1,691.5l-16-19.3v19.3h-3.8v-25.3h3.8l15.9,19.3v-19.3h3.9v25.3H544.1z"/>
		<path class="st3" d="M579.3,691.5l-16-19.3v19.3h-3.8v-25.3h3.8l15.9,19.3v-19.3h3.9v25.3H579.3z"/>
		<path class="st3" d="M594.8,691.5v-25.3h21.8v3.7h-17.9v6.6h9v3.7h-9v7.6h18.6v3.7H594.8z"/>
		<path class="st3" d="M643.9,680.9l5.5,10.6H645l-5.3-10.5h-9.9v10.5H626v-25.3h15.7c4.8,0,8.3,2.6,8.3,7.5
			C650,677.5,647.7,680,643.9,680.9z M641.6,669.9h-11.8v7.5h11.8c2.6,0,4.5-1.2,4.5-3.9C646.2,670.8,644.2,669.9,641.6,669.9z"/>
		<path class="st3" d="M685.8,692.1c-8.2,0-14.9-5.2-14.9-13.3c0-7.7,6.2-13.2,14.1-13.2c4.9,0,9.3,2,12.8,5.2l-2.9,2.3
			c-2.8-2.3-5.9-3.8-9.7-3.8c-5.8,0-10.5,3.8-10.5,9.6c0,6.1,5.4,9.5,11.4,9.5c4.2,0,6.7-1.3,9.6-4.1l2.6,2.6
			C695,690.5,690.6,692.1,685.8,692.1z"/>
		<path class="st3" d="M725.8,691.5l-3.8-8.2h-11.9l-3.9,8.2H702l12-25.3h4.3l11.8,25.3H725.8z M716.1,670.7l-4.2,8.8h8.4
			L716.1,670.7z"/>
		<path class="st3" d="M747.4,669.9v21.6h-3.8v-21.6h-9.4v-3.7h22.5v3.7H747.4z"/>
		<path class="st3" d="M784.4,691.5l-3.8-8.2h-11.9l-3.9,8.2h-4.2l12-25.3h4.3l11.8,25.3H784.4z M774.7,670.7l-4.2,8.8h8.4
			L774.7,670.7z"/>
		<path class="st3" d="M818.3,691.5v-17.7l-9.4,15.6l-9.2-15.6v17.7H796v-25.3h3.8l9.1,15.8l9.4-15.8h3.8v25.3H818.3z"/>
		<path class="st3" d="M852.9,691.5l-3.8-8.2h-11.9l-3.9,8.2h-4.2l12-25.3h4.3l11.8,25.3H852.9z M843.2,670.7l-4.2,8.8h8.4
			L843.2,670.7z"/>
		<path class="st3" d="M882.3,680.9l5.5,10.6h-4.4l-5.3-10.5h-9.9v10.5h-3.9v-25.3H880c4.8,0,8.3,2.6,8.3,7.5
			C888.4,677.5,886.1,680,882.3,680.9z M880,669.9h-11.8v7.5H880c2.6,0,4.5-1.2,4.5-3.9C884.5,670.8,882.5,669.9,880,669.9z"/>
		<path class="st3" d="M916.1,691.5l-3.8-8.2h-11.9l-3.9,8.2h-4.2l12-25.3h4.3l11.8,25.3H916.1z M906.4,670.7l-4.2,8.8h8.4
			L906.4,670.7z"/>
		<path class="st3" d="M947.5,691.5l-16-19.3v19.3h-3.8v-25.3h3.8l15.9,19.3v-19.3h3.9v25.3H947.5z"/>
	</g>
</g>
<g>
	<defs>
		<rect id="SVGID_00000121963118639461593980000013232720526378124431_" y="0" width="1249.4" height="1005.6"/>
	</defs>
	<clipPath id="SVGID_00000107588169158043057350000018112893434155865005_">
		<use xlink:href="#SVGID_00000121963118639461593980000013232720526378124431_"  style="overflow:visible;"/>
	</clipPath>
	<path style="clip-path:url(#SVGID_00000107588169158043057350000018112893434155865005_);fill:#0095DA;" d="M580.5,525.5
		c0,0,13.9-40-10.4-39.9c-39.2,0.1-202.8,8.1-231.4,13.3c-29.8,5.5-36.9,11.9-41.3,17.6C294.6,520.2,580.5,525.5,580.5,525.5"/>
	<path style="clip-path:url(#SVGID_00000107588169158043057350000018112893434155865005_);fill:#0095DA;" d="M593.3,513.5
		c40.7,1.4,64.5-0.1,64.5-0.1s20.9-36.7,1.9-38.7c-13.5-1.5-55.9,2.6-74,6.6C599.1,493.2,589,508.5,593.3,513.5"/>
	<path style="clip-path:url(#SVGID_00000107588169158043057350000018112893434155865005_);fill:#2051A4;" d="M543,471.8
		c0,0-7.4-3.5-14.6-7.4c-11.5,1.7-24,3.7-56.6,5.1c-57.4,2.5-51.9-9-51.9-9s65.8-3.8,92.1-6.2c-6.3-6.5-46.1-11.7-62.6-10.8
		c-80.1,4.6-118.8,49.3-118.8,49.3s12.2-0.5,37.5-4.8C410.9,480.9,549.7,478.3,543,471.8"/>
</g>
</svg>
